<?xml version="1.0" encoding="utf-8"?>
<!-- Generator: Adobe Illustrator 26.4.1, SVG Export Plug-In . SVG Version: 6.00 Build 0)  -->
<svg version="1.1" id="Layer_1" xmlns="http://www.w3.org/2000/svg" xmlns:xlink="http://www.w3.org/1999/xlink" x="0px" y="0px"
	 viewBox="0 0 603 626" style="enable-background:new 0 0 603 626;" xml:space="preserve">
<style type="text/css">
	.st0{fill:#E0E0E0;}
	.st1{fill:#F5F5F5;}
	.st2{fill:#EBEBEB;}
	.st3{fill:#FAFAFA;}
	.st4{opacity:0.3;}
	.st5{fill:#FFFFFF;}
	.st6{fill:#263238;}
	.st7{fill:#ED2B2B;}
	.st8{fill:#455A64;}
	.st9{fill:#FFBE9D;}
	.st10{fill:#EB996E;}
	.st11{opacity:0.6;}
	.st12{fill:#19191C;}
	.st13{fill:#1B1757;}
</style>
<path class="st0" d="M364.3,609.6c0,3.7-23.5,6.7-52.6,6.7c-29.1,0-52.6-3-52.6-6.7c0-3.7,23.5-6.7,52.6-6.7
	C340.8,602.9,364.3,605.9,364.3,609.6z"/>
<path class="st1" d="M208.4,176.8c4.3-2.6,9-4.7,13.9-6l2.9-13.8l23.3-0.4l3.3,13.6c4.9,1.2,9.7,3.1,14.1,5.6l11.8-7.7l16.7,16.2
	l-7.3,12c2.6,4.3,4.7,9,6,13.9l13.7,2.8l0.4,23.3l-13.6,3.3c-1.2,4.9-3.1,9.7-5.6,14.1l7.7,11.8l-16.2,16.7l-12-7.3
	c-4.3,2.6-9,4.7-13.9,6l-2.9,13.8l-23.2,0.4l-3.4-13.6c-4.9-1.2-9.7-3.1-14.1-5.6l-11.7,7.7l-16.7-16.2l7.3-12
	c-2.6-4.3-4.7-9-6-13.9l-13.8-2.9l-0.4-23.3l13.7-3.3c1.2-4.9,3.1-9.7,5.5-14.1l-7.7-11.8l16.2-16.7L208.4,176.8L208.4,176.8z
	 M220.7,207.8c-3.4,3.5-5.7,8-6.6,12.9c-0.9,4.9-0.3,9.9,1.7,14.4c2,4.5,5.2,8.4,9.4,11c4.1,2.7,9,4,13.9,4
	c4.9-0.1,9.7-1.6,13.8-4.4c4.1-2.8,7.2-6.8,9-11.3c1.8-4.6,2.2-9.6,1.2-14.4c-1-4.8-3.5-9.2-7-12.6c-4.8-4.6-11.1-7.1-17.7-7
	C231.7,200.3,225.4,203,220.7,207.8L220.7,207.8z"/>
<path class="st2" d="M345.1,217.4c3.7-1.3,7.5-2,11.3-2.3l4.3-9.8l17.4,3.4l0.3,10.7c3.5,1.7,6.7,3.8,9.6,6.4l10-3.9l9.9,14.7
	l-7.3,7.8c1.3,3.7,2,7.5,2.3,11.3l9.8,4.3l-3.4,17.4l-10.7,0.3c-1.7,3.5-3.8,6.7-6.4,9.6l3.9,10l-14.7,10l-7.8-7.3
	c-3.7,1.3-7.5,2-11.3,2.3l-4.3,9.8l-17.4-3.4l-0.3-10.8c-3.5-1.7-6.7-3.8-9.6-6.4l-10,3.9l-9.8-14.7l7.3-7.8
	c-1.3-3.7-2-7.5-2.3-11.3l-9.8-4.3l3.3-17.3l10.7-0.3c1.7-3.5,3.8-6.7,6.4-9.6l-3.9-10l14.7-9.9L345.1,217.4L345.1,217.4z
	 M349.4,242.4c-3.1,2.1-5.5,5.1-7,8.6c-1.4,3.5-1.8,7.3-1,11c0.7,3.7,2.6,7.1,5.2,9.7c2.7,2.7,6.1,4.5,9.8,5.2
	c3.7,0.7,7.5,0.3,11-1.1c3.5-1.5,6.4-3.9,8.5-7c2.1-3.1,3.2-6.8,3.2-10.6c0-3.8-1.1-7.4-3.2-10.6c-2.8-4.2-7.2-7.1-12.1-8
	C358.7,238.6,353.6,239.6,349.4,242.4L349.4,242.4z"/>
<path class="st0" d="M406,29.7c0,0,0.1,0,0.3,0.2c0.2,0.2,0.5,0.4,0.9,0.7c1.2,0.9,2.4,1.7,3.7,2.5c2,1.2,4.2,2.1,6.4,2.8
	c3,0.9,6.1,1.3,9.2,1.2c3.8-0.2,7.5-0.7,11.2-1.3c4.3-0.7,8.7-0.9,13-0.4c4.8,0.6,9.5,1.9,13.8,4C474,44,481.2,52.1,484.7,62
	c1.6,4.6,2.3,9.4,2.1,14.2c-0.2,4.6-0.8,8.9-0.9,13c-0.2,3.8,0.3,7.5,1.4,11.1c1,2.9,2.4,5.7,4.2,8.2c1.4,1.9,3,3.6,4.7,5.2
	c0.7,0.6,1.3,1.1,2,1.6c0.7,0.5,1.1,0.8,1.5,1.1l1,0.6c0.2,0.1,0.3,0.2,0.3,0.2c-0.1-0.1-0.2-0.1-0.4-0.2l-1-0.6
	c-0.4-0.3-1-0.6-1.6-1c-0.6-0.4-1.3-0.9-2-1.6c-4.2-3.6-7.4-8.2-9.2-13.5c-1.2-3.6-1.7-7.4-1.5-11.2c0.1-4,0.7-8.4,0.9-13
	c0.2-4.8-0.5-9.5-2.1-14c-3.4-9.8-10.6-17.8-19.9-22.3c-4.3-2.1-8.9-3.5-13.6-4c-4.3-0.5-8.6-0.3-12.9,0.4
	c-3.7,0.7-7.5,1.1-11.3,1.3c-3.1,0.1-6.3-0.4-9.3-1.3c-3.7-1.2-7.1-3-10.1-5.4c-0.4-0.3-0.7-0.6-0.9-0.8L406,29.7z"/>
<path class="st0" d="M429.1,0c1.5,1.4,3,2.8,4.3,4.4c1.6,1.8,3.1,3.7,4.4,5.7c1.8,2.6,3.1,5.6,3.9,8.7c0.2,0.9,0.3,1.8,0.4,2.7
	c0,0.9,0,1.9,0,2.8c0,1.9-0.1,3.9-0.1,6c-0.1,4.1-0.2,8.6-0.1,13.2c0.1,4.9,1,9.7,2.7,14.2c1.8,4.9,4.7,9.3,8.3,13.1
	c3.7,3.7,8.1,6.5,13.1,8.3c4.6,1.6,9.5,2.2,14.3,1.5c4.6-0.6,8.8-2,12.9-2.7c2-0.4,4-0.6,6-0.6c1.9,0,3.7,0.2,5.5,0.6
	c3.1,0.7,6.1,1.9,8.9,3.5c2.1,1.2,4,2.7,5.7,4.4c1.1,1.1,2,2.2,2.9,3.5l0.6,1l0.2,0.4c-0.1-0.1-0.2-0.2-0.2-0.3
	c-0.2-0.2-0.4-0.6-0.7-1c-2.3-3.1-5.3-5.8-8.6-7.8c-2.7-1.6-5.6-2.8-8.7-3.4c-1.8-0.4-3.6-0.6-5.5-0.6c-2,0-4,0.2-5.9,0.6
	c-4,0.7-8.3,2.1-12.9,2.7c-4.9,0.7-9.8,0.2-14.5-1.4c-5-1.7-9.5-4.6-13.2-8.4c-3.7-3.8-6.5-8.3-8.4-13.2c-1.7-4.6-2.6-9.5-2.7-14.4
	c-0.1-4.7,0.1-9.1,0.2-13.3c0-2.1,0.1-4,0.1-6c0-1,0-1.9,0-2.8c-0.1-0.9-0.2-1.8-0.4-2.7c-0.7-3.1-2-6-3.8-8.6
	c-1.3-2-2.7-3.9-4.3-5.7C432,3,431,1.9,430.3,1.1l-0.8-0.8L429.1,0z"/>
<path class="st0" d="M441.9,22.8c0.1,0.1-2.6,3.5-6,7.6c-3.4,4.1-6.3,7.3-6.4,7.3c-0.1-0.1,2.6-3.5,6-7.6
	C439,25.9,441.8,22.7,441.9,22.8z"/>
<path class="st0" d="M439.6,14.2c0.1,0.1-4.6,5-10.5,11c-5.9,6-10.8,10.8-10.8,10.6s4.6-5,10.5-11C434.7,18.9,439.5,14.1,439.6,14.2
	z"/>
<path class="st0" d="M434.8,6.2c0.1,0.1-5.6,5.9-12.8,13.1c-7.1,7.1-13,12.8-13.1,12.8c-0.1-0.1,5.6-5.9,12.8-13.1
	C428.9,11.8,434.7,6.1,434.8,6.2z"/>
<path class="st0" d="M486,67.9c0.1,0.1-3.2,3.1-7.4,6.7c-4.2,3.7-7.6,6.4-7.7,6.3c-0.1-0.1,3.2-3.1,7.4-6.7
	C482.5,70.6,485.9,67.8,486,67.9z"/>
<path class="st0" d="M481.5,56.1c-0.2,0.3-0.5,0.6-0.8,0.9c-0.5,0.5-1.3,1.3-2.2,2.2c-1.9,1.9-4.6,4.4-7.7,7.1c-3.1,2.7-5.9,5-8,6.7
	c-1.1,0.8-1.9,1.5-2.5,1.9c-0.3,0.3-0.6,0.5-1,0.7c0.3-0.3,0.5-0.6,0.8-0.8l2.4-2c2-1.7,4.8-4,7.9-6.7s5.8-5.2,7.8-7l2.3-2.2
	C480.9,56.5,481.2,56.3,481.5,56.1L481.5,56.1z"/>
<path class="st0" d="M474.7,47c-0.3,0.3-0.6,0.6-1,0.8l-2.7,2.2c-2.3,1.9-5.5,4.5-8.9,7.5s-6.4,5.8-8.6,7.9l-2.6,2.4
	c-0.3,0.3-0.6,0.6-1,0.9c0.2-0.4,0.5-0.7,0.8-1c0.6-0.6,1.4-1.5,2.5-2.5c2.1-2.1,5.1-5,8.5-8c3.4-3,6.6-5.6,9-7.4
	c1.2-0.9,2.2-1.6,2.8-2.1C474,47.5,474.4,47.2,474.7,47L474.7,47z"/>
<path class="st0" d="M463.4,40.9c-0.2,0.3-0.4,0.5-0.7,0.7l-2,1.8c-1.7,1.6-4,3.7-6.6,6.1s-4.8,4.7-6.4,6.3l-1.9,1.9
	c-0.2,0.3-0.5,0.5-0.8,0.7c0.2-0.3,0.4-0.6,0.6-0.8c0.4-0.5,1.1-1.2,1.8-2c1.6-1.7,3.8-4,6.3-6.4c2.5-2.4,4.9-4.6,6.7-6.1
	c0.9-0.7,1.6-1.3,2.1-1.7C462.9,41.2,463.2,41,463.4,40.9z"/>
<path class="st0" d="M454.7,36c-1.9,2.1-4,4.1-6.1,6c-2,2-4.2,3.9-6.5,5.7c2-2.1,4-4.1,6.2-6C450.3,39.8,452.5,37.8,454.7,36
	L454.7,36z"/>
<path class="st0" d="M502.8,77.5c-0.2,0.3-0.4,0.5-0.6,0.7l-1.8,1.7c-1.6,1.5-3.7,3.4-6,5.5c-2.3,2.1-4.3,4-5.9,5.6l-1.8,1.7
	c-0.2,0.2-0.4,0.4-0.7,0.6c0,0,0.2-0.3,0.6-0.7c0.4-0.4,1-1,1.7-1.8c1.5-1.5,3.5-3.5,5.8-5.6c2.3-2.2,4.5-4,6.1-5.4
	c0.8-0.7,1.4-1.2,1.9-1.6C502.3,77.8,502.5,77.6,502.8,77.5L502.8,77.5z"/>
<path class="st0" d="M513.8,81.6c0.1,0.1-5.4,5.4-12.3,11.8c-6.9,6.4-12.5,11.5-12.6,11.4c-0.1-0.1,5.4-5.4,12.3-11.8
	C508.1,86.7,513.7,81.6,513.8,81.6z"/>
<path class="st0" d="M521.4,85.9c0.1,0.1-5.8,6.1-13.2,13.5c-7.4,7.4-13.5,13.2-13.6,13.1c-0.1-0.1,5.8-6.1,13.2-13.5
	C515.2,91.6,521.3,85.8,521.4,85.9z"/>
<path class="st0" d="M531.9,482.7l0.3-0.5l0.1-0.3c0-0.1,0.1-0.3,0.1-0.4c0.1-0.3,0.2-0.7,0.3-1c0-0.2,0.1-0.4,0.1-0.6v-0.7
	c0-0.3,0-0.5,0-0.8c0-0.3,0-0.5,0-0.8c-0.2-1.3-0.5-2.6-0.9-3.8c-1.3-3.3-3.2-6.5-5.5-9.2c-3-3.7-6.3-7.2-9.9-10.3
	c-4.4-3.8-9-7.3-13.8-10.5c-5.5-3.6-11.3-6.9-17.3-9.7c-3.2-1.5-6.5-2.9-9.9-4.1c-3.5-1.3-7.1-2.3-10.8-3.2
	c-3.8-0.9-7.6-1.3-11.5-1.3c-2,0-3.9,0.4-5.8,1c-0.9,0.3-1.8,0.8-2.6,1.3c-0.8,0.6-1.5,1.3-2,2.2c-0.5,0.9-0.8,1.8-0.9,2.8
	c-0.1,1-0.1,2,0.1,3c0.4,1.9,1,3.8,1.9,5.6c1.8,3.4,4.1,6.6,6.7,9.4c2.5,2.8,5.2,5.4,8,7.9c2.7,2.4,5.6,4.6,8.4,6.7
	c5.4,3.9,11,7.4,16.9,10.5c5.1,2.7,10.4,5.1,15.9,7c4.5,1.6,9.1,2.8,13.8,3.6c3.6,0.7,7.2,0.8,10.8,0.3c1.3-0.2,2.6-0.5,3.8-1
	c0.3-0.1,0.5-0.2,0.7-0.4c0.2-0.1,0.4-0.2,0.6-0.4l0.6-0.4l0.5-0.4c0.3-0.2,0.5-0.5,0.7-0.7c0.1-0.1,0.2-0.2,0.3-0.3l0.2-0.3
	L531.9,482.7l-0.3,0.5l-0.2,0.3l-0.3,0.3c-0.2,0.3-0.5,0.5-0.7,0.7l-0.5,0.4l-0.6,0.4c-0.2,0.1-0.4,0.3-0.7,0.4
	c-0.2,0.1-0.5,0.3-0.7,0.4c-1.2,0.5-2.5,0.9-3.8,1c-3.6,0.5-7.2,0.4-10.8-0.3c-4.7-0.8-9.3-2-13.8-3.6c-5.5-2-10.8-4.3-15.9-7
	c-5.9-3.1-11.5-6.6-16.9-10.5c-2.8-2.1-5.7-4.3-8.5-6.7c-2.8-2.5-5.5-5.1-8-7.9c-2.6-2.9-4.9-6.1-6.7-9.5c-0.9-1.8-1.6-3.7-2-5.6
	c-0.2-1-0.2-2-0.1-3c0.1-1,0.5-2,1-2.9c0.5-0.9,1.2-1.6,2.1-2.3c0.8-0.6,1.7-1,2.7-1.3c1.9-0.6,3.9-1,5.9-1
	c3.9-0.1,7.8,0.4,11.6,1.3c3.7,0.8,7.3,1.9,10.8,3.2c3.5,1.3,6.7,2.7,9.9,4.1c6,2.8,11.8,6.1,17.4,9.8c4.9,3.2,9.5,6.7,13.8,10.5
	c3.6,3.1,6.9,6.6,9.9,10.3c2.3,2.8,4.1,5.9,5.5,9.3c0.5,1.2,0.8,2.5,0.9,3.8c0,0.3,0,0.6,0,0.8c0,0.3,0,0.5,0,0.8c0,0.2,0,0.5,0,0.7
	c0,0.2-0.1,0.4-0.1,0.6c-0.1,0.3-0.2,0.7-0.3,1c0,0.1-0.1,0.3-0.1,0.4l-0.2,0.3L531.9,482.7z"/>
<path class="st0" d="M539.2,446.1c0,0-0.1-0.2-0.2-0.6c0-0.1,0-0.2-0.1-0.3l-0.1-0.4c-0.1-0.3-0.3-0.6-0.5-0.9
	c-0.1-0.2-0.2-0.4-0.3-0.5l-0.4-0.5c-0.1-0.2-0.3-0.4-0.5-0.6c-0.2-0.2-0.4-0.4-0.6-0.6c-1-0.9-2.1-1.6-3.3-2.2
	c-3.2-1.6-6.7-2.7-10.2-3.2c-4.7-0.8-9.5-1.1-14.2-1.1c-5.8,0-11.5,0.5-17.3,1.3c-6.6,1-13,2.4-19.4,4.3c-3.4,1-6.7,2.2-10.2,3.5
	c-3.5,1.4-6.9,3-10.1,4.8c-3.4,1.8-6.6,4.1-9.4,6.7c-1.4,1.3-2.7,2.9-3.7,4.6c-0.5,0.9-0.8,1.8-1.1,2.8c-0.2,1-0.2,2,0,3
	c0.2,1,0.6,1.9,1.2,2.7c0.6,0.8,1.3,1.5,2,2.2c1.6,1.2,3.3,2.2,5.1,2.9c3.6,1.3,7.4,2.2,11.3,2.6c3.7,0.4,7.5,0.6,11.2,0.6
	c3.7,0,7.3-0.3,10.8-0.6c6.6-0.7,13.1-1.8,19.6-3.3c5.6-1.4,11.1-3.2,16.5-5.4c4.4-1.8,8.7-3.9,12.8-6.4c3.1-1.9,5.9-4.2,8.2-6.9
	c0.9-1,1.6-2.1,2.1-3.3c0.1-0.2,0.2-0.5,0.3-0.8c0.1-0.2,0.2-0.5,0.2-0.7l0.2-0.7c0-0.2,0.1-0.4,0.1-0.6c0.1-0.3,0.1-0.7,0.1-1
	c0-0.1,0-0.3,0-0.4v-0.3C539.3,446.2,539.2,446,539.2,446.1l0.1,0.6v0.3v0.4c0,0.3,0,0.7,0,1c0,0.2,0,0.4-0.1,0.6
	c-0.1,0.2-0.1,0.4-0.2,0.7c-0.1,0.2-0.1,0.5-0.2,0.7c-0.1,0.3-0.2,0.5-0.3,0.8c-0.6,1.2-1.3,2.3-2.1,3.3c-2.4,2.7-5.2,5.1-8.2,7
	c-4,2.5-8.3,4.7-12.8,6.5c-5.4,2.2-10.9,4-16.5,5.4c-6.4,1.6-13,2.8-19.6,3.5c-3.5,0.4-7.1,0.6-10.8,0.6c-3.8,0.1-7.5-0.1-11.2-0.6
	c-3.9-0.4-7.7-1.3-11.3-2.7c-1.9-0.7-3.6-1.7-5.2-2.9c-0.8-0.6-1.5-1.4-2.1-2.2c-0.6-0.8-1-1.8-1.2-2.8c-0.2-1-0.2-2,0-3
	c0.2-1,0.6-1.9,1.1-2.8c1-1.7,2.2-3.3,3.7-4.7c2.9-2.6,6-4.9,9.4-6.7c3.3-1.8,6.7-3.4,10.2-4.7c3.4-1.3,6.8-2.5,10.2-3.5
	c6.4-1.9,12.9-3.3,19.5-4.3c5.7-0.9,11.5-1.3,17.3-1.3c4.8-0.1,9.6,0.3,14.3,1.1c3.6,0.6,7,1.7,10.3,3.3c1.2,0.6,2.3,1.4,3.2,2.3
	c0.2,0.2,0.4,0.4,0.6,0.6c0.2,0.2,0.3,0.4,0.5,0.6c0.1,0.2,0.3,0.4,0.4,0.6c0.1,0.2,0.2,0.4,0.3,0.5c0.2,0.3,0.3,0.6,0.4,0.9
	c0.1,0.1,0.1,0.3,0.1,0.4l0.1,0.3C539.1,445.9,539.2,446.1,539.2,446.1z"/>
<path class="st0" d="M512.2,407.6l-0.6-0.2l-0.3-0.1l-0.4-0.1c-0.3-0.1-0.7-0.2-1-0.2l-0.6-0.1h-0.7c-0.2,0-0.5,0-0.7,0
	c-0.3,0-0.6,0-0.8,0.1c-1.3,0.2-2.5,0.7-3.7,1.2c-3.2,1.6-6.2,3.7-8.8,6.1c-3.5,3.2-6.7,6.8-9.6,10.6c-3.5,4.6-6.6,9.5-9.4,14.5
	c-3.3,5.8-6.1,11.8-8.5,18c-1.3,3.3-2.4,6.7-3.4,10.2c-1,3.6-1.8,7.2-2.4,10.9c-0.6,3.8-0.8,7.7-0.4,11.6c0.2,2,0.6,3.9,1.3,5.7
	c0.4,0.9,0.9,1.8,1.5,2.5c0.7,0.8,1.4,1.4,2.3,1.8c0.9,0.4,1.9,0.7,2.9,0.7c1,0,2-0.1,3-0.3c1.9-0.5,3.7-1.3,5.4-2.3
	c3.3-2.1,6.3-4.5,9-7.3c2.6-2.7,5.1-5.5,7.3-8.5c2.2-2.9,4.2-5.9,6.1-8.9c3.5-5.6,6.6-11.5,9.3-17.6c2.4-5.3,4.3-10.7,5.9-16.3
	c1.3-4.6,2.2-9.3,2.7-14c0.4-3.6,0.3-7.2-0.4-10.8c-0.3-1.3-0.7-2.5-1.3-3.7c-0.1-0.2-0.3-0.5-0.4-0.7c-0.1-0.2-0.3-0.4-0.4-0.6
	l-0.4-0.5c-0.1-0.2-0.3-0.3-0.4-0.5c-0.2-0.3-0.5-0.5-0.8-0.7c-0.1-0.1-0.2-0.2-0.3-0.3l-0.3-0.2L512.2,407.6l0.5,0.2l0.3,0.2
	c0.1,0.1,0.2,0.2,0.3,0.3c0.3,0.2,0.5,0.4,0.8,0.7c0.1,0.1,0.3,0.3,0.4,0.4l0.4,0.6c0.2,0.2,0.3,0.4,0.4,0.6
	c0.2,0.2,0.3,0.5,0.4,0.7c0.6,1.2,1.1,2.4,1.3,3.7c0.7,3.5,0.8,7.2,0.4,10.8c-0.5,4.8-1.4,9.5-2.7,14.1c-1.6,5.6-3.6,11-5.9,16.3
	c-2.7,6.1-5.8,12-9.3,17.6c-1.8,3-3.9,6-6.1,8.9c-2.2,3-4.7,5.9-7.3,8.5c-2.7,2.8-5.7,5.3-9,7.3c-1.7,1.1-3.5,1.8-5.5,2.3
	c-1,0.2-2,0.3-3,0.3c-1,0-2.1-0.3-3-0.8c-0.9-0.5-1.7-1.1-2.4-1.9c-0.6-0.8-1.2-1.7-1.6-2.6c-0.8-1.8-1.2-3.8-1.4-5.8
	c-0.3-3.9-0.2-7.8,0.5-11.6c0.6-3.7,1.4-7.4,2.4-11c1-3.5,2.2-6.9,3.4-10.2c2.4-6.1,5.3-12.1,8.5-17.8c2.8-5.1,6-9.9,9.5-14.5
	c2.9-3.8,6.1-7.4,9.6-10.6c2.6-2.5,5.6-4.5,8.9-6.1c1.2-0.6,2.5-1,3.7-1.2c0.3,0,0.6,0,0.8-0.1c0.3,0,0.5,0,0.8,0h0.7l0.6,0.1
	c0.3,0,0.7,0.1,1,0.2l0.4,0.1l0.3,0.1L512.2,407.6z"/>
<path class="st0" d="M441.1,487.3c0.3,0.2,0.6,0.5,0.7,0.9c0.1,0.4,0.2,0.7,0.1,1.1c-0.1,0.4-0.3,0.7-0.5,1s-0.6,0.4-1,0.5
	c-0.4,0.1-0.8,0-1.1-0.1c-0.4-0.1-0.7-0.4-0.9-0.7c-0.2-0.3-0.3-0.7-0.3-1.1c0-0.4,0.1-0.8,0.3-1.1c0.1-0.2,0.3-0.4,0.5-0.5
	c0.2-0.1,0.5-0.2,0.7-0.3c0.3,0,0.5,0,0.8,0C440.6,487.1,440.9,487.2,441.1,487.3L441.1,487.3z"/>
<path class="st0" d="M536,407.7c0.1,0.4,0,0.8-0.1,1.1c-0.1,0.4-0.4,0.7-0.7,0.9c-0.3,0.2-0.7,0.3-1.1,0.3c-0.4,0-0.8-0.1-1.1-0.3
	c-0.3-0.2-0.6-0.5-0.7-0.9c-0.1-0.4-0.2-0.7-0.1-1.1c0.1-0.4,0.3-0.7,0.5-1c0.3-0.3,0.6-0.5,1-0.5c0.5-0.1,1,0,1.4,0.3
	C535.6,406.7,535.9,407.2,536,407.7z"/>
<path class="st0" d="M454.2,491.2c0,0.1,0,0.1,0,0.2c0,0.1,0,0.1-0.1,0.2c0,0.1-0.1,0.1-0.1,0.1c-0.1,0-0.1,0.1-0.2,0.1
	c-0.1,0-0.1,0-0.2,0c-0.1,0-0.1,0-0.2-0.1c-0.1,0-0.1-0.1-0.1-0.1c0-0.1-0.1-0.1-0.1-0.2c0-0.1,0-0.3,0.1-0.4
	c0.1-0.1,0.2-0.2,0.3-0.2c0.1,0,0.3,0,0.4,0.1C454.1,490.9,454.2,491.1,454.2,491.2L454.2,491.2z"/>
<path class="st0" d="M454,436.2c0,0.1,0,0.3-0.1,0.4c-0.1,0.1-0.2,0.2-0.3,0.2c-0.1,0-0.3,0-0.4-0.1c-0.1-0.1-0.2-0.2-0.2-0.3
	c0-0.1,0-0.1,0-0.2c0-0.1,0-0.1,0.1-0.2c0-0.1,0.1-0.1,0.1-0.1c0.1,0,0.1-0.1,0.2-0.1c0.1,0,0.1,0,0.2,0c0.1,0,0.1,0,0.2,0.1
	c0.1,0,0.1,0.1,0.1,0.1C453.9,436.1,454,436.2,454,436.2L454,436.2z"/>
<path class="st0" d="M534,447.1c0,0.1,0,0.1,0,0.2c0,0.1,0,0.1-0.1,0.2c0,0.1-0.1,0.1-0.1,0.1c-0.1,0-0.1,0.1-0.2,0.1
	c-0.1,0-0.1,0-0.2,0c-0.1,0-0.1,0-0.2-0.1c-0.1,0-0.1-0.1-0.1-0.1c0-0.1-0.1-0.1-0.1-0.2c0-0.1,0-0.1,0-0.2c0-0.1,0-0.1,0.1-0.2
	c0-0.1,0.1-0.1,0.1-0.1c0.1,0,0.1-0.1,0.2-0.1c0.1,0,0.1,0,0.2,0c0.1,0,0.1,0,0.2,0.1c0.1,0,0.1,0.1,0.1,0.1
	C533.9,447,534,447,534,447.1L534,447.1z"/>
<path class="st0" d="M536.2,423.4c0,0.1,0,0.1,0,0.2c0,0.1,0,0.1-0.1,0.2c0,0.1-0.1,0.1-0.1,0.1c-0.1,0-0.1,0.1-0.2,0.1
	c-0.1,0-0.1,0-0.2,0c-0.1,0-0.1,0-0.2-0.1c-0.1,0-0.1-0.1-0.1-0.1c0-0.1-0.1-0.1-0.1-0.2c0-0.1,0-0.1,0-0.2c0-0.1,0-0.1,0.1-0.2
	c0-0.1,0.1-0.1,0.1-0.1c0.1,0,0.1-0.1,0.2-0.1c0.1,0,0.1,0,0.2,0c0.1,0,0.1,0,0.2,0.1c0.1,0,0.1,0.1,0.1,0.1
	C536.2,423.3,536.2,423.3,536.2,423.4L536.2,423.4z"/>
<path class="st0" d="M496.6,460.4c2.4-4.6,0.6-10.2-4-12.6c-4.6-2.4-10.2-0.6-12.6,4c-2.4,4.6-0.6,10.2,4,12.6
	C488.5,466.8,494.2,465,496.6,460.4z"/>
<path class="st0" d="M139.4,347.9c0,0-0.5,0.3-1.6,0.9c-1.1,0.6-2.6,1.3-4.6,2.6c-5.9,3.3-11.5,7-17,11
	c-8.6,6.3-16.6,13.4-23.9,21.2c-4.6,4.9-8.8,10-12.8,15.3c-4.5,6-8.4,12.4-11.6,19.1c-1.7,3.6-3.1,7.4-4.3,11.2
	c-1.2,4-2,8.1-2.4,12.3c-0.4,4.3-0.1,8.7,0.7,13c0.4,2.2,1,4.4,1.8,6.5c0.8,2.1,1.8,4.2,2.9,6.2c4.9,8.2,11.9,14.9,20.2,19.6
	c8.9,4.8,18.6,8,28.6,9.5c5.1,0.8,10.3,1.4,15.6,1.8c2.7,0.2,5.4,0.3,8,0.4l8.1,0.4c2.7,0.2,5.4,0.1,8.2,0.1h8.3
	c2.8,0,5.6-0.2,8.4-0.3l8.4-0.4c23.3-1.5,46.4-5,69.1-10.4c46.8-10.9,89.5-27.8,127.2-45.4c18.9-8.7,36.5-17.8,51.3-28.8
	c7.2-5.3,13.8-11.3,19.8-17.9l2.1-2.4c0.7-0.8,1.3-1.7,2-2.5l1.9-2.5l1.8-2.5c2.4-3.2,4.4-6.7,6-10.4c3.2-6.7,4.8-14.1,4.7-21.6
	c-0.1-6.7-2.8-13.1-7.5-17.9c-4.2-4-9.6-6.6-15.3-7.6c-4.8-0.9-9.7-0.9-14.5,0c-3.8,0.7-7.6,1.7-11.3,3c-3.2,1.1-5.8,2.2-8,3.1
	l-4.8,2.1l-1.6,0.7l1.6-0.8c1.1-0.5,2.7-1.2,4.8-2.1c2.1-0.9,4.8-2,8-3.2c3.7-1.3,7.4-2.4,11.3-3c4.8-0.9,9.8-0.9,14.6-0.1
	c5.8,0.9,11.2,3.5,15.5,7.5c4.8,4.9,7.5,11.3,7.6,18.1c0.1,7.5-1.5,15-4.7,21.8c-1.6,3.7-3.7,7.2-6,10.5l-1.8,2.6l-1.9,2.5
	c-0.7,0.8-1.3,1.7-2,2.5l-2.1,2.4c-6,6.7-12.6,12.7-19.8,18c-14.9,11.1-32.6,20.2-51.4,29c-37.6,17.6-80.4,34.6-127.3,45.5
	c-46.8,10.9-93.1,14-134.4,8.3c-10.1-1.5-19.8-4.7-28.8-9.6c-8.5-4.7-15.5-11.5-20.5-19.8c-1.1-2-2.1-4.1-2.9-6.3
	c-0.8-2.1-1.4-4.3-1.8-6.6c-0.8-4.3-1.1-8.8-0.7-13.1c0.4-4.2,1.2-8.4,2.4-12.4c1.2-3.9,2.7-7.6,4.4-11.3
	c3.3-6.8,7.2-13.2,11.7-19.1c10.4-14,22.8-26.3,36.9-36.5c5.5-4,11.1-7.6,17.1-10.9C137.2,348.9,139.4,347.9,139.4,347.9z"/>
<path class="st2" d="M530.8,228.6l-16.9,62l-51.2,14.2c-0.8,0.3-1.5,0.9-2,1.6c-0.4,0.8-0.6,1.7-0.4,2.5l0,0l56-14.4l1.9-0.6
	l66.4-17.8l7.4-29.4l9.6-34.5c0.2-0.4,0.3-0.9,0.2-1.4c-0.1-0.5-0.3-0.9-0.6-1.3c-0.3-0.4-0.7-0.7-1.2-0.8c-0.5-0.2-1-0.2-1.4-0.1
	l-66.2,18.2c-0.4,0.1-0.8,0.4-1.1,0.7C531.2,227.7,530.9,228.1,530.8,228.6L530.8,228.6z"/>
<path class="st3" d="M534.3,230.6l-15.3,56.5l60.2-16.5l13.5-55.7L534.3,230.6z"/>
<path class="st0" d="M598.8,208.5c0,0.1,0,0.2,0,0.3c-0.1,0.3-0.1,0.6-0.2,1c-0.2,0.9-0.5,2.1-0.9,3.7c-0.8,3.2-2,7.8-3.4,13.5
	c-2.9,11.5-7,27.5-11.6,45.5v0.2h-0.2l-9.6,2.6L521.1,289l-15.7,4.1l-4.3,1.1l-1.1,0.3l-0.4,0.1c0.1-0.1,0.2-0.1,0.4-0.1l1.1-0.3
	l4.3-1.2l15.7-4.3l51.8-14l9.7-2.6l-0.3,0.3c4.7-18,8.8-34,11.8-45.4c1.5-5.7,2.7-10.3,3.6-13.5c0.4-1.5,0.8-2.7,1-3.6
	c0.1-0.4,0.2-0.7,0.3-0.9C598.9,208.4,598.8,208.5,598.8,208.5z"/>
<path class="st2" d="M142.3,468.7c12.1-7.1,16.2-22.7,9.1-34.8c-7.1-12.1-22.7-16.2-34.8-9.1c-12.1,7.1-16.2,22.7-9.1,34.8
	C114.6,471.7,130.2,475.8,142.3,468.7z"/>
<g class="st4">
	<path class="st5" d="M120.8,447.6c-0.7,0.4-1.5,0.6-2.4,0.5c-0.8-0.1-1.6-0.4-2.2-0.9c-0.6-0.5-1.1-1.2-1.3-2
		c-0.2-0.8-0.2-1.6,0-2.4c0.2-0.8,0.7-1.5,1.3-2c0.6-0.5,1.4-0.8,2.2-0.9c0.8-0.1,1.6,0.1,2.4,0.5c0.7,0.4,1.3,1,1.7,1.7
		c0.5,1,0.6,2.1,0.3,3.2C122.5,446.2,121.8,447.1,120.8,447.6L120.8,447.6z"/>
</g>
<g class="st4">
	<path class="st5" d="M128.6,436.7c-0.4,0.2-0.9,0.3-1.4,0.3c-0.5,0-0.9-0.2-1.3-0.5c-0.4-0.3-0.6-0.7-0.8-1.2
		c-0.1-0.5-0.1-0.9,0-1.4c0.1-0.5,0.4-0.9,0.8-1.2c0.4-0.3,0.8-0.5,1.3-0.5c0.5,0,1,0,1.4,0.3c0.4,0.2,0.8,0.6,1,1
		c0.3,0.6,0.4,1.2,0.2,1.8C129.6,435.9,129.2,436.4,128.6,436.7L128.6,436.7z"/>
</g>
<path class="st0" d="M112.3,427.9c-0.3,0.3-29.2-9.1-30.5-2c-1.3,7.1,20.1,22.6,44,32.7c24,10.1,50.2,17,52.4,10.1
	c2.2-6.9-23.4-21.9-23.4-21.9l-0.3,3.6c0,0,15.9,8.8,14.8,14.9c-1,6.1-20.7,0.9-42.4-9.5c-21.7-10.4-39.4-22.3-37.3-26.7
	c2.1-4.4,20,1.6,20,1.6L112.3,427.9z"/>
<g class="st4">
	<path class="st5" d="M138.6,426c-0.1,0.3-2.2-0.5-5.7-0.9c-4.5-0.5-9.1,0.3-13.2,2.4s-7.4,5.3-9.7,9.2c-1.8,3-2.4,5.2-2.7,5.1
		c-0.3-0.1-0.1-2.4,1.4-5.8c0.9-2,2.2-3.8,3.7-5.5c1.8-2,4-3.7,6.4-4.9c2.4-1.2,5.1-2,7.8-2.3c2.2-0.2,4.4-0.2,6.6,0.3
		C136.7,424.4,138.7,425.8,138.6,426z"/>
</g>
<path class="st1" d="M102,44.3l1.3,6c0.3,1.2,0.2,2.4-0.2,3.5c-0.4,1.1-1,2.2-1.9,3L60.8,95.3c-1.2,1.1-2,2.4-2.6,3.9
	c-0.5,1.5-0.7,3.1-0.5,4.6c0.2,1.6,0.7,3.1,1.6,4.4c0.9,1.3,2,2.4,3.4,3.2l25.6,14.8c1.5,0.8,3.1,1.3,4.8,1.4
	c1.7,0.1,3.4-0.2,4.9-0.9c1.5-0.7,2.9-1.7,4-3c1.1-1.3,1.8-2.8,2.2-4.4l12.5-54.2c0.3-1.2,0.9-2.3,1.7-3.2c0.9-0.9,2-1.6,3.2-1.9
	l5.2-1.5L102,44.3z"/>
<path class="st0" d="M109.6,87c-2.9-0.9-5.5-2.5-7.6-4.6c-2-2.1-3.5-4.6-5.4-6.7c-1.9-2.1-4.4-4-7.3-4.2L64,96.2
	c-1,0.9-1.7,2.1-2.1,3.3c-0.4,1.3-0.6,2.6-0.4,3.9c0.2,1.3,0.6,2.6,1.4,3.7c0.7,1.1,1.7,2,2.9,2.7l22.9,13.3
	c1.1,0.7,2.4,1.1,3.8,1.2c1.3,0.1,2.6-0.1,3.9-0.6c1.2-0.5,2.3-1.3,3.2-2.3c0.9-1,1.5-2.2,1.9-3.5L109.6,87z"/>
<g class="st4">
	<path class="st5" d="M70.3,108.6c0,0.1-0.6-0.1-1.3-1c-1-1.3-1.5-2.8-1.4-4.4c0-1.1,0.2-2.2,0.6-3.2c0.4-1.2,1-2.3,1.7-3.3
		c1.7-2.2,3.5-4.2,5.5-6.1c8-8.2,14.7-14.5,15.1-14.2c0.4,0.4-5.8,7.3-13.8,15.4c-1.9,1.8-3.7,3.8-5.4,5.8c-0.7,0.9-1.2,1.8-1.7,2.8
		c-0.4,0.9-0.6,1.8-0.7,2.7c-0.1,1.4,0.1,2.8,0.8,4C70,108.1,70.4,108.5,70.3,108.6z"/>
</g>
<path class="st3" d="M106.3,90.8c-0.3,0-0.7,0-1-0.1c-0.6,0-1.5-0.2-2.7-0.4c-1.3-0.3-2.6-0.7-3.8-1.3c-0.7-0.4-1.4-0.8-2-1.3
	c-0.6-0.6-1.2-1.2-1.7-1.8c-1.1-1.3-1.9-2.8-2.7-4c-0.7-1.1-1.7-2-2.7-2.8c-0.7-0.5-1.5-0.9-2.4-1.1c-0.6-0.1-1-0.1-1-0.2
	c0,0,0.1,0,0.3,0c0.2,0,0.5,0,0.7,0c0.9,0.2,1.8,0.5,2.5,1.1c1.1,0.8,2.1,1.7,2.8,2.8c0.9,1.2,1.7,2.7,2.8,4
	c0.5,0.7,1.1,1.3,1.7,1.8c0.6,0.5,1.2,1,1.9,1.3c1.2,0.6,2.4,1.1,3.7,1.3c1.1,0.3,2,0.4,2.6,0.5C105.7,90.6,106,90.7,106.3,90.8
	L106.3,90.8z"/>
<path class="st1" d="M155.2,37.6c-0.6-2.7-2.1-5.1-4.2-6.8c-3.4-3.4-7.7-5.6-12.4-6.4c-2.5-0.3-5-0.2-7.5,0.5
	c-2.4,0.7-4.7,1.8-6.7,3.4c-1.9,1.5-3.5,3.4-4.6,5.6c-1.1,2.2-1.8,4.5-1.9,7c-0.5,3.2,2.9,5.9,6.1,6c3.2,0.2,6.2-1.3,9.1-2.8
	c2.9-1.4,6-2.8,9.2-2.2c3.2,0.6,6.2,3.2,9.3,2.2C154.2,43.4,155.6,40.3,155.2,37.6z"/>
<path class="st1" d="M176.3,32.4c-0.2-2.5-2.1-6.4-6.7-5.9c-1.9,0-3.9,2.3-4.4,4.2c-0.2,0.9-0.2,1.9,0.1,2.8
	c0.3,0.9,0.8,1.7,1.6,2.3c0.7,0.6,1.6,1,2.6,1.3c0.9,0.2,1.9,0.2,2.8,0C174.4,36.5,176.5,34.6,176.3,32.4z"/>
<path class="st0" d="M1,233.8l-0.7,1.9c-0.2,0.6-0.3,1.2-0.3,1.8c0,0.6,0.2,1.2,0.5,1.8l38.1,73c0.3,0.5,0.7,1,1.1,1.4
	c0.5,0.4,1,0.7,1.6,0.8l2.2,0.6c0.5,0.1,1,0.2,1.5,0.1l44.5-3.5c1.1-0.1,2.1-0.6,2.8-1.3s1.2-1.8,1.2-2.8c0-0.8-0.1-1.6-0.5-2.3
	l-40.4-75.4c-0.4-0.8-1-1.4-1.8-1.8c-0.8-0.4-1.6-0.6-2.5-0.5L4.8,231c-0.8,0.1-1.7,0.4-2.3,0.9C1.8,232.4,1.3,233,1,233.8L1,233.8z
	"/>
<path class="st3" d="M3.8,232.8l40.5,75.6l45.8-3.6l-40.2-75.7L3.8,232.8z"/>
<path class="st0" d="M48.9,290.2c1.2-0.5,2.6-0.6,3.9-0.4c1.3,0.3,2.5,0.9,3.4,1.8c0.9,0.9,1.6,2.1,1.8,3.4c0.3,1.3,0.1,2.6-0.4,3.9
	c-0.5,1.2-1.4,2.3-2.5,3c-1.1,0.7-2.4,1.2-3.7,1.2c-1.3,0-2.6-0.4-3.7-1.1c-1.1-0.7-2-1.8-2.5-3c-0.4-0.8-0.5-1.7-0.6-2.6
	c0-0.9,0.2-1.8,0.5-2.6c0.3-0.8,0.8-1.6,1.5-2.2C47.3,291,48.1,290.5,48.9,290.2L48.9,290.2z"/>
<path class="st5" d="M51.6,293.3l-0.2,1.2c0,0.1,0,0.1,0,0.2c0,0.1,0.1,0.1,0.2,0.1l0.2,0.1c0,0,0.4,0.1,0.3,0.5
	c-0.1,0.4-0.8,2-0.8,2s-0.2,0.5-0.5,0.3l-0.3-0.1c-0.1,0-0.1,0-0.2,0c-0.1,0-0.1,0.1-0.2,0.1l-0.8,1.1c0,0.1-0.1,0.1-0.1,0.2
	c0,0.1,0,0.1,0.1,0.2l0.3,0.3c0.1,0.1,0.1,0.1,0.2,0.1c0.2,0.1,0.4,0.1,0.6,0c0.6-0.3,1.1-0.8,1.5-1.3c0.4-0.5,0.7-1.2,0.9-1.8
	c0.7-2.1,0-2.9-0.1-3.1c-0.1-0.2-0.3-0.3-0.6-0.3H52c0,0-0.1,0-0.1,0c0,0-0.1,0-0.1,0.1c0,0-0.1,0.1-0.1,0.1
	C51.6,293.2,51.6,293.2,51.6,293.3L51.6,293.3z"/>
<path class="st0" d="M66.7,298.9c-1-0.9-1.7-2-2.1-3.3c-0.4-1.3-0.3-2.6,0.1-3.9c0.4-1.3,1.2-2.4,2.2-3.2c1-0.8,2.3-1.3,3.6-1.4
	c1.3-0.1,2.6,0.2,3.8,0.8c1.2,0.6,2.1,1.6,2.7,2.8c0.6,1.2,0.9,2.5,0.7,3.8c-0.1,1.3-0.7,2.6-1.5,3.6c-0.6,0.7-1.3,1.3-2.1,1.7
	c-0.8,0.4-1.7,0.7-2.6,0.7c-0.9,0.1-1.8,0-2.6-0.3C68.1,299.9,67.4,299.4,66.7,298.9L66.7,298.9z"/>
<path class="st5" d="M68.2,295l1.2-0.4c0.1,0,0.1-0.1,0.2-0.1c0-0.1,0.1-0.1,0.1-0.2v-0.2c0-0.1,0-0.1,0-0.2c0-0.1,0-0.1,0.1-0.1
	c0,0,0.1-0.1,0.1-0.1c0,0,0.1-0.1,0.1-0.1c0.3,0,2.1-0.2,2.1-0.2s0.5,0,0.5,0.3v0.4c0,0.1,0,0.1,0.1,0.2c0,0,0.1,0.1,0.2,0.1
	l1.3,0.3c0.1,0,0.1,0,0.2,0c0.1,0,0.1-0.1,0.1-0.2l0.1-0.4c0-0.1,0-0.2,0-0.2c0-0.2-0.1-0.4-0.3-0.6c-0.6-0.4-1.2-0.6-1.9-0.8
	c-0.7-0.1-1.4-0.1-2,0c-2.2,0.3-2.7,1.3-2.7,1.5c-0.1,0.2-0.1,0.4,0,0.6l0.1,0.2c0,0.1,0.1,0.1,0.2,0.2C68,295,68.1,295.1,68.2,295
	L68.2,295z"/>
<path class="st2" d="M47.1,261.1c1.7-1.2,2.2-3.6,1.1-6.2c-1.5-3.4-5.4-5.8-8.5-5.3c-3.2,0.4-4.5,3.6-3,6.9c0.6,1.3,1.5,2.4,2.6,3.3
	c1.1,0.9,2.4,1.5,3.7,1.9c-8.2,2.7-3.4,12.1-3.4,12.1l22.6-1.8C62.1,272,56.5,261.1,47.1,261.1z"/>
<path class="st2" d="M73.7,279.7c0,0.4-8.1,1.3-18.1,2.1c-10,0.8-18.2,1.1-18.2,0.8c0-0.4,8.1-1.3,18.1-2.1
	C65.5,279.8,73.7,279.4,73.7,279.7z"/>
<path class="st2" d="M84.5,538.3l1.5,2.5c1.6,2.8,4.1,5,7,6.5l2.6,1.3l-2.5,1.4c-2.8,1.7-5,4.1-6.4,7l-1.3,2.6l-1.5-2.5
	c-1.7-2.8-4.1-5-7-6.4l-2.6-1.3l2.5-1.5c2.8-1.7,5-4.1,6.4-6.9L84.5,538.3z"/>
<path class="st2" d="M560,56.1l1.5,2.5c1.7,2.8,4.1,5,7,6.4l2.6,1.3l-2.5,1.5c-2.8,1.7-5,4.1-6.4,7l-1.3,2.6l-1.5-2.5
	c-1.7-2.8-4.1-5-7-6.4l-2.6-1.3l2.5-1.5c2.8-1.7,5-4.1,6.4-7L560,56.1z"/>
<path class="st2" d="M576.9,94.2l1.3,2.1c1.4,2.4,3.5,4.3,6,5.6l2.2,1.1l-2.1,1.3c-2.4,1.4-4.3,3.5-5.6,6.1l-1.1,2.2l-1.3-2.2
	c-1.4-2.4-3.5-4.3-6.1-5.6l-2.2-1l2.1-1.3c2.4-1.4,4.3-3.5,5.6-6L576.9,94.2z"/>
<path class="st2" d="M56,510.6l1,1.7c1.2,1.9,2.9,3.5,4.9,4.5l1.8,0.9l-1.7,1c-1.9,1.2-3.5,2.9-4.5,4.9l-0.9,1.8l-1-1.7
	c-1.2-2-2.9-3.5-5-4.5l-1.8-0.9l1.7-1c1.9-1.2,3.5-2.9,4.5-4.9L56,510.6z"/>
<path class="st2" d="M501.9,529.6l1.1,1.7c1.2,2,2.9,3.5,4.9,4.5l1.8,0.9l-1.7,1.1c-1.9,1.2-3.5,2.9-4.5,4.9l-0.9,1.8l-1.1-1.7
	c-1.2-1.9-2.9-3.5-4.9-4.5l-1.8-0.9l1.7-1.1c2-1.2,3.5-2.9,4.5-4.9L501.9,529.6z"/>
<path class="st2" d="M43,32.7l1,1.7c1.2,1.9,2.9,3.5,4.9,4.5l1.8,0.9l-1.7,1c-2,1.2-3.5,2.9-4.5,5l-0.9,1.8l-1.1-1.8
	c-1.2-1.9-2.9-3.5-4.9-4.5l-1.8-0.9l1.7-1.1c1.9-1.2,3.5-2.9,4.5-4.9L43,32.7z"/>
<path class="st2" d="M561.1,350l1.1,1.7c1.2,2,2.9,3.5,4.9,4.5l1.8,0.9l-1.7,1c-2,1.2-3.5,2.9-4.5,4.9l-0.9,1.8l-1.1-1.7
	c-1.2-1.9-2.9-3.5-4.9-4.5l-1.8-0.9l1.7-1.1c1.9-1.2,3.5-2.9,4.5-4.9L561.1,350z"/>
<path class="st2" d="M38.5,157.9l1.1,1.7c1.2,2,2.9,3.5,4.9,4.5l1.8,0.9l-1.7,1.1c-2,1.2-3.5,2.9-4.5,4.9l-0.9,1.8l-1-1.7
	c-1.2-1.9-2.9-3.5-4.9-4.5l-1.8-0.9l1.7-1.1c2-1.2,3.5-2.9,4.5-4.9L38.5,157.9z"/>
<path class="st6" d="M578.9,598.5c0,0.2-119.6,0.4-267.1,0.4c-147.5,0-267.1-0.2-267.1-0.4c0-0.1,119.6-0.3,267.1-0.3
	S578.9,598.2,578.9,598.5z"/>
<path class="st7" d="M109.7,180.1l1,1.6c1.1,1.8,2.7,3.3,4.6,4.2l1.7,0.8l-1.6,1c-1.8,1.1-3.3,2.7-4.2,4.6l-0.8,1.7l-1-1.6
	c-1.1-1.8-2.7-3.3-4.6-4.2l-1.7-0.8l1.6-1c1.8-1.1,3.3-2.7,4.2-4.6L109.7,180.1z"/>
<path class="st7" d="M459.5,357.6l1,1.6c1.1,1.8,2.7,3.3,4.6,4.2l1.7,0.8l-1.6,1c-1.8,1.1-3.3,2.7-4.2,4.6l-0.8,1.7l-1-1.6
	c-1.1-1.8-2.7-3.3-4.6-4.2l-1.7-0.8l1.6-1c1.8-1.1,3.3-2.7,4.2-4.6L459.5,357.6z"/>
<path class="st7" d="M269.5,24.3l1,1.6c1.1,1.8,2.7,3.3,4.6,4.2l1.7,0.8l-1.6,1c-1.8,1.1-3.3,2.6-4.2,4.5l-0.8,1.7l-1-1.6
	c-1.1-1.8-2.7-3.3-4.6-4.2l-1.7-0.8l1.6-1c1.8-1.1,3.3-2.7,4.2-4.6L269.5,24.3z"/>
<path class="st7" d="M497,176.6l1,1.6c1.1,1.8,2.7,3.3,4.6,4.2l1.7,0.8l-1.6,1c-1.8,1.1-3.3,2.7-4.2,4.6l-0.8,1.7l-1-1.6
	c-1.1-1.8-2.7-3.3-4.6-4.2l-1.7-0.8l1.6-1c1.8-1.1,3.3-2.7,4.2-4.6L497,176.6z"/>
<path class="st7" d="M146.5,242.4l0.7,1.2c0.8,1.3,2,2.4,3.3,3.1l1.2,0.6l-1.2,0.7c-1.3,0.8-2.4,2-3.1,3.3l-0.6,1.2l-0.7-1.2
	c-0.8-1.3-2-2.4-3.3-3.1l-1.2-0.6l1.2-0.7c1.3-0.8,2.4-2,3.1-3.3L146.5,242.4z"/>
<path class="st7" d="M178.7,393.4l0.7,1.2c0.8,1.3,2,2.4,3.3,3l1.2,0.6l-1.2,0.7c-1.3,0.8-2.4,2-3.1,3.3l-0.6,1.2l-0.7-1.2
	c-0.8-1.3-1.9-2.4-3.3-3.1l-1.2-0.6l1.2-0.7c1.3-0.8,2.4-2,3.1-3.3L178.7,393.4z"/>
<path class="st7" d="M486.4,130.8l0.7,1.2c0.8,1.3,2,2.4,3.3,3.1l1.2,0.6l-1.2,0.7c-1.3,0.8-2.4,2-3.1,3.3l-0.6,1.2l-0.7-1.2
	c-0.8-1.3-2-2.4-3.3-3.1l-1.2-0.6l1.2-0.7c1.3-0.8,2.4-2,3.1-3.3L486.4,130.8z"/>
<path class="st7" d="M83.4,210.5l0.7,1.2c0.8,1.3,2,2.4,3.3,3.1l1.2,0.6l-1.2,0.7c-1.3,0.8-2.4,2-3.1,3.3l-0.6,1.2l-0.7-1.2
	c-0.8-1.3-2-2.4-3.3-3.1l-1.2-0.6l1.2-0.7c1.3-0.8,2.4-2,3.1-3.3L83.4,210.5z"/>
<path class="st7" d="M520.5,138.1l0.4,0.7c0.5,0.8,1.1,1.4,1.9,1.8l0.7,0.3l-0.7,0.4c-0.8,0.4-1.4,1.1-1.8,1.9l-0.3,0.7l-0.4-0.7
	c-0.5-0.8-1.1-1.4-1.9-1.8l-0.7-0.3l0.7-0.4c0.8-0.5,1.4-1.1,1.8-1.9L520.5,138.1z"/>
<path class="st7" d="M495.3,332.1l0.4,0.7c0.5,0.8,1.1,1.4,1.9,1.8l0.7,0.4l-0.7,0.4c-0.8,0.5-1.4,1.1-1.8,1.9l-0.4,0.7l-0.4-0.7
	c-0.5-0.8-1.1-1.4-1.9-1.8l-0.7-0.4l0.7-0.4c0.8-0.5,1.4-1.1,1.8-1.9L495.3,332.1z"/>
<path class="st7" d="M321,9.1l0.4,0.7c0.5,0.8,1.1,1.4,1.9,1.8l0.7,0.4l-0.7,0.4c-0.8,0.4-1.4,1.1-1.8,1.9l-0.4,0.7l-0.4-0.7
	c-0.5-0.8-1.1-1.4-1.9-1.8l-0.7-0.3l0.7-0.4c0.8-0.5,1.4-1.1,1.8-1.9L321,9.1z"/>
<path class="st7" d="M243.8,43.5l0.4,0.7c0.4,0.8,1.1,1.4,1.9,1.8l0.7,0.4l-0.7,0.4c-0.8,0.5-1.4,1.1-1.8,1.9l-0.4,0.7l-0.4-0.7
	c-0.5-0.8-1.1-1.4-1.9-1.8l-0.7-0.4l0.7-0.4c0.8-0.5,1.4-1.1,1.7-1.9L243.8,43.5z"/>
<path class="st7" d="M187.4,411.1l0.4,0.7c0.5,0.8,1.1,1.4,1.9,1.8l0.7,0.4l-0.7,0.4c-0.8,0.5-1.4,1.1-1.8,1.9l-0.4,0.7l-0.4-0.7
	c-0.5-0.8-1.1-1.4-1.9-1.8l-0.7-0.4l0.7-0.4c0.8-0.5,1.4-1.1,1.8-1.9L187.4,411.1z"/>
<path class="st8" d="M385.7,510.6l-167.1-0.4c-6.9,0-12.5-4.9-12.5-10.9c0-6,5.6-10.8,12.6-10.8l167.1,0.4c6.9,0,12.5,4.9,12.5,10.9
	C398.3,505.8,392.6,510.7,385.7,510.6z"/>
<path class="st8" d="M385.7,484.3l-167.1-0.4c-6.9,0-12.5-4.9-12.5-10.9c0-6,5.6-10.8,12.6-10.8l167.1,0.4c6.9,0,12.5,4.9,12.5,10.9
	C398.3,479.5,392.6,484.3,385.7,484.3z"/>
<path class="st8" d="M379,514.6l-153-0.4c-2.9,0.2-5.6,1.5-7.6,3.6c-2,2.1-3.1,4.9-3.1,7.8s1.1,5.7,3.1,7.8c2,2.1,4.7,3.4,7.6,3.6
	h16.8l22.2,42.6c1.2,2.4,3.1,4.4,5.4,5.8c2.3,1.4,4.9,2.1,7.6,2.2l54.7,0.1c2.7,0,5.4-0.7,7.7-2.1c2.3-1.4,4.2-3.4,5.5-5.8
	l21.8-42.2H379c2.9-0.2,5.6-1.5,7.6-3.6c2-2.1,3.1-4.9,3.1-7.8c0-2.9-1.1-5.7-3.1-7.8C384.6,516.1,381.9,514.8,379,514.6L379,514.6z
	"/>
<path class="st6" d="M431.6,336.5c0,0-0.4,0.6-1.2,1.8l-3.6,5.4l-2.7,4c-1,1.5-1.9,3.2-3,4.9l-3.5,5.8c-1.3,2-2.4,4.4-3.7,6.7
	c-0.6,1.2-1.3,2.5-2,3.7c-0.3,0.6-0.7,1.3-1,1.9c-0.4,0.6-0.6,1.3-1,2c-1.3,2.8-2.7,5.6-4,8.7l-4,9.7c-1.3,3.4-2.5,7-3.8,10.7
	c-2.6,8-4.7,16.1-6.3,24.4c-1.8,9.3-2.7,18.8-2.7,28.2v0.2h-0.2L210.4,455h-0.3v-0.3c-1.9-20.9-7.3-41.3-16.1-60.3
	c-4.6-10.1-9.9-19.9-15.9-29.2c-3-4.8-6.2-9.4-9.6-14c-3.4-4.6-7.1-9-10.8-13.5l-0.4-0.5h0.7l-0.3,0.5
	c-16.7-21.5-28.1-46.6-33.3-73.3c-0.7-3.4-1.2-6.9-1.7-10.4c-0.2-1.8-0.4-3.5-0.6-5.3l-0.3-2.7l-0.2-2.7c-0.1-1.8-0.3-3.5-0.3-5.3
	c-0.1-1.8,0-3.6-0.1-5.4c-0.1-1.8,0-3.6,0-5.4c0-1.8,0-3.6,0.2-5.4c0.8-14.5,3.4-28.8,7.7-42.6c12.4-39,38.3-72.4,72.9-94.2
	c8.3-5.2,16.9-9.7,25.9-13.5c8.8-3.7,18-6.6,27.3-8.7c18.1-4.2,36.7-5.4,55.2-3.7c8.9,0.8,17.7,2.3,26.4,4.5
	c8.4,2.2,16.7,4.9,24.7,8.2c7.8,3.3,15.3,7.2,22.5,11.5c7,4.3,13.6,9,20,14.2c12,9.9,22.6,21.3,31.6,34
	c8.3,11.7,15.1,24.4,20.2,37.7c1.3,3.2,2.3,6.4,3.4,9.5c1.1,3.2,1.8,6.4,2.7,9.4c0.7,3.2,1.5,6.3,2.1,9.4c0.3,1.6,0.6,3.1,0.8,4.6
	c0.3,1.5,0.6,3.1,0.7,4.6c1.7,11.5,2.2,23.1,1.6,34.6c-1.1,18.6-5.2,36.9-12.1,54.1c-2.5,6.3-5.4,12.4-8.7,18.3
	c-2.9,5.1-5.5,9.4-7.7,12.7l-3,4.4l-2.3,3.1L431.6,336.5l1.8-2.5l2.3-3.1l3-4.4c2.2-3.3,4.8-7.6,7.6-12.7c3.2-6,6.1-12.1,8.6-18.4
	c11.1-28.1,14.7-58.7,10.4-88.6c-0.2-1.5-0.5-3-0.7-4.6c-0.3-1.5-0.6-3.1-0.8-4.6c-0.6-3.1-1.3-6.2-2.1-9.4
	c-0.8-3.2-1.7-6.3-2.7-9.4c-1-3.1-2-6.4-3.4-9.5c-5.1-13.3-11.9-26-20.2-37.6c-9-12.6-19.6-24-31.5-33.8c-6.3-5.1-13-9.8-19.9-14.1
	c-7.2-4.3-14.7-8.1-22.5-11.4c-8-3.3-16.2-6.1-24.6-8.2c-8.6-2.1-17.4-3.6-26.3-4.5c-18.4-1.7-37-0.4-55,3.7
	c-9.3,2.1-18.4,5-27.2,8.7c-9,3.8-17.6,8.3-25.8,13.5c-34.6,21.8-60.3,55.2-72.6,94.2c-4.3,13.8-6.8,28-7.7,42.4
	c-0.1,1.8-0.1,3.6-0.2,5.4c-0.1,1.8-0.1,3.5-0.1,5.3c0.1,1.8,0.1,3.5,0.1,5.3c0,1.8,0.2,3.5,0.3,5.3l0.2,2.7l0.3,2.7
	c0.2,1.7,0.4,3.5,0.6,5.2c0.5,3.5,1,6.9,1.7,10.3c5.1,26.6,16.5,51.7,33.1,73.1l0.4,0.6h-0.7l0.3-0.6c3.7,4.5,7.5,8.8,10.8,13.5
	c3.3,4.7,6.6,9.3,9.7,14.1c6,9.4,11.3,19.2,15.9,29.3c8.8,19.1,14.3,39.6,16.2,60.5l-0.3-0.3l178.4,0.1l-0.2,0.2
	c0-9.5,0.9-19,2.8-28.3c1.6-8.3,3.7-16.4,6.3-24.5c1.3-3.7,2.5-7.3,3.8-10.7c1.3-3.4,2.7-6.6,4-9.7c1.3-3.1,2.8-5.9,4-8.7l1-2l1-1.9
	c0.7-1.3,1.3-2.5,2-3.7c1.3-2.4,2.5-4.7,3.7-6.7l3.5-5.8c1.1-1.8,2.1-3.5,3.1-4.9s1.9-2.8,2.7-4l3.7-5.4l1.3-1.8L431.6,336.5z"/>
<path class="st6" d="M146,289.3c-0.1-0.1-0.1-0.2-0.1-0.4c-0.1-0.3-0.2-0.7-0.4-1.1c-0.4-1.1-0.8-2.5-1.4-4.4l-1-3.2
	c-0.3-1.2-0.6-2.5-1-3.8c-0.7-2.8-1.6-5.9-2.2-9.4c-0.3-1.8-0.7-3.6-1-5.5c-0.4-1.9-0.5-4-0.8-6.1c-0.6-4.2-0.8-8.7-1.1-13.5
	c-0.4-10.3,0-20.6,1.3-30.8c1.5-10.2,3.8-20.3,6.9-30.1c1.6-4.5,3-8.8,4.7-12.6c0.8-1.9,1.6-3.9,2.4-5.6l2.5-5.1
	c1.5-3.3,3.2-6,4.6-8.5c0.7-1.2,1.3-2.4,2-3.4l1.8-2.8l2.5-3.9l0.7-1c0.2-0.2,0.2-0.3,0.3-0.3c0,0,0,0.1-0.2,0.4l-0.6,1l-2.4,3.9
	l-1.8,2.8c-0.6,1.1-1.2,2.2-1.9,3.5c-1.3,2.5-3,5.3-4.5,8.6l-2.4,5.1c-0.8,1.8-1.5,3.7-2.3,5.6c-1.7,3.9-3.1,8.1-4.6,12.6
	c-3,9.8-5.3,19.8-6.7,30c-1.3,10.2-1.8,20.5-1.4,30.7c0.3,4.7,0.5,9.2,1.1,13.4c0.3,2.1,0.4,4.1,0.8,6.1c0.3,1.9,0.7,3.8,1,5.5
	c0.5,3.5,1.3,6.7,2,9.4c0.3,1.3,0.6,2.7,0.9,3.9c0.3,1.2,0.7,2.2,1,3.2c0.6,1.9,1,3.4,1.3,4.4l0.3,1.2C146,289,146,289.1,146,289.3z
	"/>
<path class="st6" d="M197.5,107.8c-2.9,3-6,5.8-9.3,8.5c-3.1,2.8-6.3,5.5-9.7,7.9c2.9-3,6-5.8,9.3-8.5
	C190.8,112.9,194.1,110.3,197.5,107.8L197.5,107.8z"/>
<path class="st6" d="M433.5,308.8c0,0,0-0.1,0.1-0.3l0.4-0.9l1.6-3.3l1.2-2.4c0.4-0.9,0.8-1.9,1.3-2.9c0.9-2.1,2-4.4,3-7.1l1.6-4.2
	c0.6-1.5,1-3,1.6-4.6c1.1-3.2,2.1-6.6,3.1-10.3c2.1-7.9,3.6-16,4.7-24.1c0.9-8.1,1.3-16.3,1.2-24.5c-0.1-3.8-0.2-7.4-0.6-10.8
	c-0.1-1.7-0.2-3.3-0.4-4.8s-0.4-3-0.6-4.4c-0.3-2.8-0.8-5.4-1.2-7.6c-0.2-1.1-0.4-2.2-0.6-3.1c-0.2-1-0.4-1.8-0.6-2.6l-0.8-3.6
	c-0.1-0.4-0.1-0.7-0.2-0.9c0-0.1,0-0.2,0-0.3c0,0.1,0.1,0.2,0.1,0.3c0.1,0.3,0.1,0.6,0.2,0.9c0.2,0.9,0.5,2.1,0.9,3.6l0.6,2.6
	c0.2,1,0.4,2,0.6,3.1c0.4,2.2,1,4.8,1.3,7.6l0.6,4.4c0.2,1.6,0.3,3.2,0.5,4.9c0.4,3.3,0.5,7,0.6,10.8c0.4,16.5-1.6,32.9-5.9,48.8
	c-1.1,3.6-2,7.1-3.2,10.3c-0.6,1.6-1,3.1-1.6,4.6l-1.7,4.2c-1,2.7-2.2,5-3.1,7.1c-0.5,1-0.9,2-1.3,2.9l-1.2,2.4l-1.7,3.3l-0.5,0.8
	C433.7,308.6,433.6,308.7,433.5,308.8L433.5,308.8z"/>
<path class="st5" d="M389.8,193.8c0,0-0.1-0.1-0.1-0.1l-0.2-0.3l-0.7-1.2l-0.5-0.9l-0.5-1.1c-0.4-0.8-0.8-1.7-1.2-2.7l-0.6-1.6
	l-0.6-1.7c-0.5-1.2-0.9-2.5-1.3-3.9c-0.8-2.7-1.7-5.8-2.4-9c-0.7-3.2-1.3-6.3-1.7-9.2c-0.4-2.8-0.7-5.4-0.9-7.6
	c-0.1-1.1-0.2-2-0.2-2.9c-0.1-0.9-0.1-1.6-0.1-2.2v-1.3v-0.5c0,0,0,0,0,0.1v0.4c0,0.4,0,0.8,0.1,1.3s0.1,1.3,0.2,2.2
	c0.1,0.8,0.1,1.8,0.3,2.9c0.2,2.2,0.5,4.7,0.9,7.5c0.4,2.8,1,5.9,1.7,9.2c0.7,3.2,1.6,6.3,2.4,9c0.5,1.3,0.8,2.7,1.3,3.9l0.6,1.7
	l0.6,1.6c0.4,1,0.8,1.9,1.1,2.7l0.5,1.1l0.4,0.9l0.6,1.3l0.1,0.3L389.8,193.8z"/>
<path class="st5" d="M408.9,210.8c-0.2,0-0.4,0-0.6-0.1c-0.6-0.1-1.1-0.2-1.7-0.4c-0.8-0.2-1.6-0.6-2.4-0.9c-0.9-0.5-1.8-1-2.7-1.6
	c-0.9-0.6-1.7-1.3-2.4-2c-0.6-0.6-1.2-1.3-1.7-2c-0.3-0.5-0.7-0.9-0.9-1.4c-0.1-0.2-0.2-0.4-0.3-0.6c0,0,0.5,0.8,1.3,1.9
	c0.5,0.7,1.1,1.3,1.7,1.9c0.8,0.7,1.6,1.4,2.4,2c0.9,0.6,1.8,1.1,2.7,1.6c0.8,0.4,1.5,0.7,2.3,1C408,210.6,408.9,210.7,408.9,210.8z
	"/>
<path class="st5" d="M417.1,185.9h-0.4c-0.2,0-0.6,0-1.1,0c-1.3,0-2.7-0.2-3.9-0.6c-1.9-0.6-3.7-1.5-5.2-2.8
	c-1.9-1.5-3.5-3.5-4.4-5.7s-1.4-4.7-1.1-7.1c0.1-1.1,0.3-2.1,0.6-3.1c0.3-0.9,0.6-1.7,1-2.6c0.6-1.2,1.3-2.3,2.2-3.3
	c0.2-0.3,0.5-0.5,0.8-0.8c0.2-0.2,0.3-0.3,0.3-0.2c0,0-0.4,0.4-1,1.1c-0.9,1-1.6,2.1-2.1,3.3c-0.4,0.8-0.7,1.7-1,2.6
	c-0.3,1-0.4,2-0.5,3.1c-0.2,2.4,0.2,4.8,1.1,7c1,2.2,2.5,4.1,4.4,5.6c0.8,0.7,1.7,1.2,2.6,1.7c0.8,0.4,1.7,0.8,2.5,1.1
	c1.3,0.4,2.6,0.6,3.9,0.7C416.6,185.9,417.1,185.9,417.1,185.9z"/>
<path class="st5" d="M400.7,106.2c-0.1,0.6-0.4,1.1-0.8,1.6s-1,0.7-1.6,0.8c-0.6,0.1-1.2,0.1-1.8-0.2c-0.6-0.2-1-0.6-1.4-1.1
	c-0.3-0.5-0.5-1.1-0.5-1.7c0-0.6,0.2-1.2,0.5-1.7c0.3-0.5,0.8-0.9,1.4-1.1c0.6-0.2,1.2-0.3,1.8-0.2c0.8,0.2,1.5,0.6,1.9,1.3
	C400.7,104.5,400.9,105.4,400.7,106.2z"/>
<path class="st5" d="M411.1,72.5h-0.1h-0.4c-0.3,0-0.8,0-1.3,0.1c-1.7,0.2-3.4,0.5-5.1,0.8c-2.5,0.6-4.9,1.4-7.2,2.5
	c-2.8,1.3-5.5,3-7.9,5c-4.4,3.7-7.9,8.3-10.2,13.5c-0.7,1.6-1.3,3.2-1.8,4.8c-0.2,0.6-0.3,1.1-0.4,1.3l-0.1,0.3v0.1c0,0,0,0,0-0.1
	l0.1-0.4c0.1-0.3,0.1-0.8,0.3-1.3c0.4-1.7,1-3.3,1.6-4.9c1-2.4,2.3-4.6,3.8-6.7c5.2-7.3,12.9-12.4,21.7-14.3
	c1.7-0.4,3.4-0.6,5.2-0.8c0.6,0,1.1,0,1.3,0L411.1,72.5L411.1,72.5z"/>
<path class="st5" d="M377.3,113.9c-0.2-0.3-0.4-0.7-0.5-1.1c-0.3-0.9-0.5-1.8-0.7-2.7c-0.1-0.9-0.2-1.9-0.2-2.8c0-0.4,0-0.8,0.1-1.2
	c0.1,0,0,1.8,0.3,4C376.7,112.4,377.4,113.9,377.3,113.9z"/>
<path class="st5" d="M432.2,95c0,0.1-6.6,0.1-14.7,0.1c-8.1,0-14.8,0-14.8-0.1c0-0.1,6.6-0.1,14.8-0.1S432.2,94.9,432.2,95z"/>
<path class="st5" d="M407,128.6c0,0-0.1,0-0.2,0H406c-0.3,0-0.7,0-1.1,0s-1,0-1.5,0c-1.3,0-2.6-0.1-3.9-0.2
	c-1.6-0.2-3.2-0.5-4.8-0.8c-1.6-0.4-3.1-0.8-4.6-1.3c-1.2-0.4-2.4-1-3.6-1.5c-0.5-0.2-1-0.5-1.3-0.7c-0.4-0.2-0.7-0.4-1-0.6
	l-0.6-0.4l-0.2-0.1c0,0,0.1,0,0.2,0.1l0.6,0.3c0.3,0.1,0.6,0.3,1,0.5c0.4,0.2,0.9,0.4,1.3,0.6c1,0.5,2.2,1,3.6,1.5
	c1.5,0.5,3.1,1,4.6,1.3c1.6,0.4,3.1,0.6,4.7,0.8c1.5,0.2,2.8,0.3,3.9,0.3c0.6,0,1.1,0,1.5,0h2.1L407,128.6z"/>
<path class="st7" d="M121.2,379.9l0.1,18.7c0,0,31-17.5,21.9-34.3L121.2,379.9z"/>
<path class="st7" d="M124.3,336.7c0,0-22.4-8.2-39.3,7l17.4,9.8L124.3,336.7z"/>
<path class="st1" d="M102.4,353.6c0.7,0.9,18.9,26.3,18.9,26.3l47.5-33.7c2-1.4,3.6-3.2,4.8-5.2c1.2-2.1,2-4.3,2.3-6.7
	c0.3-2.4,0.1-4.8-0.6-7.1s-1.8-4.4-3.4-6.3l0,0c-2.9-3.4-7-5.6-11.4-6c-4.4-0.5-8.9,0.8-12.4,3.5L102.4,353.6z"/>
<path class="st6" d="M102.4,353.6c0.1-0.1,0.2-0.2,0.4-0.3l1.2-1l4.6-3.6l17.2-13.4l11.9-9.2l6.7-5.1l3.5-2.7c1.2-0.9,2.5-1.7,4-2.3
	c0.7-0.3,1.4-0.6,2.2-0.8c0.8-0.2,1.5-0.4,2.3-0.5c1.6-0.2,3.2-0.2,4.8,0c3.3,0.4,6.4,1.8,9,4c1.3,1.1,2.4,2.4,3.4,3.8
	c0.9,1.4,1.7,3,2.2,4.7c1,3.4,0.9,7.1-0.1,10.5c-1,3.2-3,6.1-5.6,8.3c-2.7,2-5.3,3.8-7.9,5.7l-15,10.6l-25.6,18.1l-0.2,0.1l-0.1-0.2
	c-5.8-8.2-10.5-14.8-13.7-19.4l-3.7-5.3l-0.9-1.3C102.5,353.9,102.4,353.8,102.4,353.6c0.1,0.2,0.2,0.3,0.4,0.5
	c0.3,0.3,0.6,0.8,1,1.3l3.8,5.2l13.9,19.1h-0.3l25.5-18.2c4.8-3.4,9.8-6.9,15-10.6c2.6-1.9,5.3-3.7,7.8-5.6c2.5-2.1,4.4-4.8,5.4-7.9
	c1-3.3,1.1-6.8,0.1-10c-0.5-1.6-1.2-3.1-2.1-4.5c-1.3-2-3.1-3.7-5.1-5c-2-1.3-4.3-2.1-6.7-2.5c-1.5-0.2-3.1-0.2-4.6,0
	c-0.8,0.1-1.5,0.2-2.2,0.4c-0.7,0.2-1.4,0.5-2.1,0.8c-2.8,1.1-5,3.2-7.3,4.9l-6.6,5.1l-11.9,9.1l-17.4,13.2l-4.8,3.6l-1.3,0.9
	L102.4,353.6z"/>
<path class="st7" d="M125.1,352.1l-29.7,21.3c0,0,1.3,3.2,2.1,2.9c0.7-0.3,23-15.5,30.3-20.4c0.3-0.2,0.5-0.4,0.7-0.7
	c0.2-0.3,0.3-0.6,0.3-0.9c0-0.3,0-0.7-0.1-1c-0.1-0.3-0.3-0.6-0.5-0.9l0,0c-0.4-0.4-0.9-0.7-1.5-0.7
	C126.1,351.7,125.6,351.8,125.1,352.1L125.1,352.1z"/>
<path class="st5" d="M155.9,338.8c0.1,2-0.3,3.9-1.3,5.6c-1,1.7-2.4,3.1-4.2,3.9c-1.8,0.9-3.7,1.2-5.7,0.9c-1.9-0.3-3.8-1.1-5.2-2.4
	c-1.5-1.3-2.5-3-3-4.9c-0.5-1.9-0.4-3.9,0.2-5.8c0.6-1.9,1.8-3.5,3.4-4.7c1.6-1.2,3.4-1.9,5.4-2c2.6-0.2,5.2,0.7,7.2,2.5
	C154.5,333.7,155.7,336.1,155.9,338.8z"/>
<path class="st6" d="M155.9,338.8c0,0-0.1-0.9-0.6-2.3c-0.7-2.1-2.1-3.9-3.9-5.1c-1.3-0.9-2.9-1.4-4.5-1.5c-1.6-0.1-3.2,0.1-4.7,0.8
	c-1.8,0.8-3.3,2.1-4.3,3.8c-1,1.7-1.5,3.6-1.4,5.6c0.1,2,0.9,4,2.2,5.5c1.2,1.4,2.7,2.4,4.4,3c1.7,0.6,3.6,0.6,5.3,0.2
	c1.5-0.4,2.8-1.1,3.9-2c1.7-1.4,2.8-3.4,3.3-5.5C155.7,340.4,155.8,339.6,155.9,338.8c0.1,0.2,0.1,0.4,0.1,0.7c0,0.6,0,1.2-0.1,1.8
	c-0.3,1.9-1.2,3.7-2.5,5.1c-1.3,1.4-3,2.5-4.9,2.9c-1.9,0.5-3.8,0.4-5.7-0.1c-1.8-0.6-3.5-1.7-4.7-3.1c-1.4-1.7-2.2-3.7-2.4-5.9
	c-0.1-2.1,0.4-4.2,1.5-6c1.1-1.8,2.7-3.2,4.6-4c1.7-0.7,3.5-1,5.3-0.8c1.9,0.2,3.7,1,5.2,2.3c1.5,1.2,2.6,2.9,3.1,4.8
	c0.2,0.6,0.3,1.2,0.3,1.8C155.9,338.4,155.9,338.6,155.9,338.8L155.9,338.8z"/>
<path class="st7" d="M170.9,344.4c15.9-14.9,13.1-32.2,13.1-32.2c-21.4-5.6-35.9,6.2-35.9,6.2C162.4,320.4,170,329,170.9,344.4z"/>
<path class="st9" d="M340.3,280.9l5.5,50.9l32.8,10.9l1.3,15.9l-46.3-3.1c0,0-14.3,0.4-17.4-18.4l-0.8-49.4L340.3,280.9z"/>
<path class="st9" d="M408.3,358.4c-0.3,0.3-0.7,0.6-1.1,0.7c-0.4,0.1-0.9,0.1-1.3,0c-0.2-0.1-0.4-0.1-0.5-0.3
	c-1.2-0.7-0.4-3.3-0.4-3.3l-5.8-2.6c0,0-9.2,3-12.9,5.6c-3.7,2.6-10.1-2-10.1-2l0.9-13.5L391,336c0,0-0.8,0.4,0.4-1.3
	c1.3-1.7,4.6,0,4.6,0c0.8-0.8,3.2-0.5,3.2-0.5l9.4,3.7c1,0.4,1.8,1,2.5,1.7c0.7,0.8,1.2,1.7,1.5,2.6l2.4,7.6c0,0,0.9,5.3,0.3,6.3
	c-0.3,0.4-0.7,0.7-1.2,0.8c-0.5,0.1-1,0.1-1.4-0.2c0,0-1.3,3-2.1,2.9C409.7,359.4,409,359,408.3,358.4L408.3,358.4z"/>
<path class="st10" d="M389,357c0.2-0.1,0.5-0.2,0.7-0.3l2-0.9c2.5-1,5-1.9,7.6-2.7h-0.1l5.8,2.6l-0.1-0.3c-0.1,0.5-0.2,1-0.3,1.5
	c-0.1,0.6,0,1.1,0.3,1.6c0.2,0.3,0.4,0.5,0.7,0.6c0.3,0.1,0.5,0.2,0.8,0.3c0.6,0.1,1.2-0.1,1.7-0.4c0.1-0.1,0.3-0.2,0.4-0.3l0.1-0.1
	h-0.4l0.2,0.1l0.7,0.5c0.2,0.2,0.5,0.3,0.8,0.4c0.1,0.1,0.3,0.1,0.4,0.2c0.2,0.1,0.4,0.1,0.6,0c0.3-0.1,0.6-0.4,0.8-0.6
	c0.2-0.2,0.4-0.5,0.5-0.8c0.3-0.5,0.6-1.1,0.8-1.6l-0.4,0.1c0.4,0.2,0.8,0.3,1.3,0.3c0.4,0,0.8-0.2,1.2-0.4c0.4-0.3,0.6-0.7,0.7-1.1
	c0.1-0.4,0.2-0.8,0.3-1.2c-0.1-1.6-0.2-3.2-0.5-4.8l0,0c-0.4-1.3-0.8-2.7-1.3-4c-0.3-0.9-0.5-1.7-0.8-2.6c-0.2-0.9-0.6-1.7-1-2.5
	c-0.5-0.8-1.1-1.5-1.8-2c-0.7-0.5-1.5-0.9-2.3-1.2l-8.9-3.5h-0.1c-0.6-0.1-1.2-0.1-1.7,0c-0.6,0-1.2,0.2-1.7,0.6h0.4
	c-0.4-0.4-1-0.6-1.5-0.7c-0.6-0.1-1.1-0.1-1.7,0.1c-1,0.4-1.8,1.1-2.2,2.1l0.1-0.1l-9.4,4.9l-2.6,1.3c-0.3,0.1-0.6,0.3-0.9,0.5
	c0.3-0.1,0.6-0.2,0.9-0.4l2.6-1.2l9.6-4.7h0.1v-0.1c0.4-0.8,1.1-1.4,1.9-1.8c0.5-0.1,0.9-0.1,1.4,0c0.5,0.1,0.9,0.3,1.3,0.6l0.2,0.1
	l0.2-0.2c0.4-0.3,0.9-0.4,1.3-0.4c0.5-0.1,1.1-0.1,1.6,0h-0.1l8.9,3.5c0.8,0.3,1.5,0.6,2.2,1.1c0.7,0.5,1.2,1.1,1.6,1.8
	c0.4,0.8,0.7,1.6,0.9,2.4c0.3,0.8,0.5,1.7,0.8,2.6c0.4,1.3,0.9,2.7,1.3,4c0.3,1.5,0.5,3.1,0.5,4.7c0,0.4,0,0.7-0.1,1.1
	c-0.1,0.3-0.3,0.6-0.5,0.8c-0.3,0.2-0.6,0.3-0.9,0.3c-0.3,0-0.6,0-0.9-0.2l-0.3-0.1l-0.1,0.3c-0.2,0.5-0.5,1-0.8,1.5
	c-0.2,0.5-0.6,0.8-1,1.1c-0.1,0-0.2,0-0.3,0c-0.1,0-0.2-0.1-0.4-0.1c-0.2-0.1-0.5-0.2-0.7-0.4c-0.2-0.1-0.5-0.3-0.7-0.5l-0.2-0.1
	c0.4,0-0.5,0-0.4,0l-0.1,0.1c-0.1,0.1-0.2,0.2-0.3,0.2c-0.4,0.3-0.9,0.4-1.3,0.4c-0.2,0-0.5-0.1-0.6-0.2c-0.2-0.1-0.4-0.2-0.5-0.4
	c-0.3-0.9-0.3-1.8,0-2.7v-0.2l-0.2-0.1l-5.8-2.5h-0.1h-0.1c-2.6,0.8-5.1,1.8-7.5,2.9c-0.9,0.4-1.5,0.7-1.9,1
	C389.5,356.8,389.2,356.9,389,357L389,357z"/>
<path class="st10" d="M396.7,338.5c0.9,0.7,1.8,1.3,2.9,1.8c2.5,1.2,5.2,2.1,7.9,2.7l-0.3-0.3c0,0.5,0.1,1.1,0.1,1.6
	c0.4,3.2,1.4,6.2,2.9,9c0.5,0.8,1,1.6,1.6,2.4c0.4,0.5,0.7,0.8,0.7,0.8c0,0-0.8-1.3-1.9-3.4c-1.4-2.8-2.3-5.8-2.7-8.8
	c-0.1-0.6-0.1-1.1-0.1-1.6v-0.2h-0.3c-2.7-0.5-5.3-1.4-7.8-2.5C397.9,339,396.8,338.3,396.7,338.5z"/>
<path class="st10" d="M404.5,346.6c-0.2,4.2,1.3,8.3,4.2,11.4c0.2-0.1-1.4-2.4-2.6-5.5C404.9,349.3,404.7,346.6,404.5,346.6z"/>
<path class="st10" d="M375.4,352.1c0,0,0.1,0.1,0.3,0.3c0.3,0.2,0.6,0.4,0.9,0.6c1.1,0.7,2.4,1.2,3.7,1.5c2,0.4,4.1,0.2,6.1-0.5
	c2.4-1,4.5-2.7,5.8-5l-0.4,0.1c3,1.5,6.3,2.3,9.7,2.5c0.9,0.1,1.8,0,2.7-0.2c0.5-0.1,0.9-0.4,1.2-0.8c0.1-0.2,0.2-0.5,0.3-0.7
	c0-0.2,0-0.5,0-0.7c-0.1-0.5-0.4-0.9-0.9-1.1l-1.1-0.6c-2.8-1.5-5.4-2.7-7.5-3.7c-2.1-1-4-1.7-5.2-2.1c-0.6-0.3-1.3-0.5-2-0.6
	c0.6,0.3,1.2,0.6,1.9,0.9c1.2,0.5,3,1.3,5.1,2.3c2.2,0.9,4.7,2.3,7.4,3.8l1,0.6c0.1,0.1,0.3,0.2,0.4,0.3c0.1,0.1,0.2,0.3,0.2,0.4
	c0,0.2,0.1,0.3,0,0.5c0,0.2-0.1,0.3-0.2,0.5c-0.2,0.3-0.5,0.5-0.9,0.5c-0.8,0.2-1.7,0.2-2.5,0.1c-3.3-0.2-6.5-1-9.4-2.4l-0.3-0.1
	l-0.1,0.3c-1.2,2.2-3.1,3.9-5.4,4.8c-1.8,0.7-3.8,1-5.8,0.7c-1.3-0.2-2.5-0.6-3.7-1.3C375.8,352.4,375.4,352.1,375.4,352.1z"/>
<path class="st6" d="M414.9,542.4c0.1-0.4,0.1-0.9,0-1.3c-0.2-1.2-0.6-2.3-1.3-3.2c-0.2-0.3-0.5-0.7-0.8-0.9
	c-0.2-0.2-0.4-0.3-0.7-0.4c-0.3-0.1-0.5,0-0.8,0c-0.1,0.1-0.3,0.1-0.4,0.2c-0.1,0.1-0.2,0.2-0.2,0.4c-0.1,0.3-0.1,0.6,0,0.8
	c0.2,0.5,0.4,0.9,0.7,1.3c0.5,0.8,0.9,1.7,1.5,2.6c0.2,0.3,0.5,0.5,0.8,0.6s0.6,0.2,1,0.2c0.6-0.1,1.2-0.4,1.6-0.7
	c0.9-0.7,1.7-1.4,2.4-2.2c0.3-0.4,0.7-0.8,1-1.2c0.3-0.4,0.6-0.9,0.7-1.4c0.1-0.3,0-0.6-0.1-0.9c-0.1-0.3-0.4-0.5-0.6-0.6
	c-0.3-0.1-0.5-0.1-0.8,0c-0.3,0.1-0.5,0.2-0.7,0.4c-0.6,0.5-1.1,1.1-1.6,1.8c-0.7,0.9-1.2,2-1.6,3.1c-0.2,0.4-0.3,0.8-0.3,1.2
	c0.6-1.4,1.4-2.8,2.3-4c0.4-0.6,1-1.2,1.5-1.6c0.1-0.1,0.3-0.2,0.4-0.2c0.2,0,0.3,0,0.5,0c0.1,0.1,0.2,0.2,0.3,0.3
	c0.1,0.1,0.1,0.3,0,0.5c-0.1,0.4-0.3,0.8-0.6,1.1c-0.3,0.4-0.6,0.8-0.9,1.2c-0.7,0.8-1.5,1.5-2.3,2.1c-0.4,0.3-0.9,0.5-1.3,0.6
	c-0.2,0-0.4,0-0.6-0.1c-0.2-0.1-0.3-0.2-0.5-0.4c-0.5-0.8-1-1.7-1.5-2.5c-0.2-0.4-0.4-0.8-0.6-1.2c-0.1-0.4,0-0.6,0.2-0.7
	c0.6-0.2,1.1,0.4,1.5,1C414,539.4,414.6,540.9,414.9,542.4L414.9,542.4z"/>
<path class="st9" d="M382,543.5l-16.3,35.4l-26.4-12.2l16.9-43.8L382,543.5z"/>
<path class="st7" d="M368.8,576.5l-9.6,18.2c0,0,24.4,25.3,22.1,30.9l-57.4-27.5l15.8-36.5L368.8,576.5z"/>
<path class="st0" d="M342.6,583.7c-0.6-0.1-1.3,0-1.8,0.4c-0.5,0.4-0.9,0.9-1.1,1.5c-0.1,0.6,0,1.3,0.3,1.8c0.3,0.5,0.9,0.9,1.5,1.1
	c0.7,0.1,1.4,0,1.9-0.4c0.6-0.4,1-1,1.1-1.6c0.1-0.7-0.1-1.3-0.6-1.9c-0.4-0.5-1-0.9-1.7-0.9"/>
<g class="st11">
	<path class="st5" d="M323.9,598.1l2.4-4.6l54.2,28.1c0,0,2,2.3,0.9,4L323.9,598.1z"/>
</g>
<path class="st6" d="M360.3,594.9c-0.1,0.3-1.6-0.3-3.4,0c-1.8,0.3-3.1,1.1-3.3,0.8c-0.2-0.2,1-1.7,3.2-1.9
	C358.9,593.6,360.5,594.7,360.3,594.9z"/>
<path class="st6" d="M365.1,600.3c-0.1,0.3-1.5,0.2-3,0.9c-1.5,0.7-2.4,1.9-2.7,1.7c-0.3-0.1,0.3-1.8,2.2-2.7
	C363.5,599.3,365.2,600,365.1,600.3z"/>
<path class="st6" d="M365.1,609.1c-0.3,0,0-1.6,1.5-2.8c1.5-1.2,3.1-1.2,3.1-0.9c0,0.3-1.2,0.7-2.4,1.7
	C366.1,608.1,365.4,609.3,365.1,609.1z"/>
<path class="st6" d="M363,587.9c-0.2,0.2-1.3-0.8-3-1.5c-1.6-0.6-3.1-0.7-3.1-1.1c0-0.3,1.6-0.7,3.6,0
	C362.4,586.1,363.3,587.7,363,587.9z"/>
<path class="st6" d="M374.2,571.8L417.2,464c0,0-1-18.4-4.4-24.2c-3.4-5.8-106-39.7-106-39.7s-26.1-6.3-43.6,0
	c-17.4,6.3-30.5,28.1-28.1,40.2c2.4,12.1,13.5,21.9,13.5,21.9l74.5,1.3l41.1,14.9l-27.7,79.4L374.2,571.8z"/>
<path class="st9" d="M412.4,498.2l1,39l-29,0.7l-4.2-46.8L412.4,498.2z"/>
<path class="st7" d="M415.1,533.7l-0.6,20.6c0,0,33.1,11.9,33.5,18l-63.7,0.6l-2-39.7L415.1,533.7z"/>
<path class="st0" d="M394.9,551.7c-0.6,0.2-1.1,0.6-1.5,1.2c-0.3,0.6-0.4,1.2-0.3,1.8c0.2,0.6,0.6,1.1,1.1,1.5
	c0.5,0.3,1.2,0.4,1.8,0.3c0.7-0.2,1.2-0.6,1.5-1.2c0.3-0.6,0.4-1.3,0.3-2c-0.2-0.6-0.7-1.1-1.3-1.4c-0.6-0.3-1.3-0.3-1.9-0.1"/>
<g class="st11">
	<path class="st5" d="M384.4,572.9l0.1-5.2l61,1.3c0,0,2.9,1.2,2.5,3.2L384.4,572.9z"/>
</g>
<path class="st6" d="M415.6,553.9c0,0.3-1.6,0.5-3.1,1.5c-1.5,1-2.3,2.3-2.6,2.2c-0.3-0.1,0.2-1.9,2-3.1
	C413.8,553.3,415.7,553.6,415.6,553.9z"/>
<path class="st6" d="M422.4,556.6c0.1,0.3-1.3,0.8-2.3,2.2s-1.3,2.7-1.6,2.7c-0.3,0-0.5-1.8,0.8-3.4
	C420.5,556.4,422.3,556.3,422.4,556.6z"/>
<path class="st6" d="M426.2,564.5c-0.3,0.1-0.7-1.5,0-3.2c0.7-1.7,2.2-2.4,2.4-2.2c0.1,0.3-0.8,1.2-1.3,2.6
	C426.7,563.2,426.5,564.5,426.2,564.5z"/>
<path class="st6" d="M415,546.4c-0.1,0.3-1.6-0.1-3.3,0c-1.8,0.1-3.1,0.7-3.3,0.4c-0.2-0.3,1.1-1.3,3.2-1.5
	C413.7,545.1,415.2,546.1,415,546.4z"/>
<path class="st6" d="M395.5,389.9c0,0,17.4-1.3,19.3,17.5c1.9,18.9,3.8,106.9,3.8,106.9l-40.7,3.4l-6.3-90l-64.8-27.6
	C306.8,400.2,383.9,387.5,395.5,389.9z"/>
<path class="st6" d="M323.8,364.5c0,0,10.6,29.7,8.5,32.9c-2,3.2-29.2,16.9-29.2,16.9l-67.9,26.1c0,0-7-11.1-7-28.1
	c0-17.1,23.6-47.7,23.6-47.7H323.8z"/>
<path class="st8" d="M303.7,398.6c0,0,0.1,0.1,0.3,0.2l1,0.4l3.8,1.7l14.1,6.1l48.8,21l-0.2-0.3c0.6,8.9,1.3,18.5,2,28.4
	c1.6,23.2,3.2,44.6,4.4,61.6v0.3h0.3l29.7-2.6l8.1-0.8l2.1-0.2c0.2,0,0.5-0.1,0.7-0.1h-0.7l-2.1,0.1l-8.2,0.6l-29.7,2.3l0.3,0.3
	c-1.2-16.9-2.6-38.4-4.2-61.6c-0.7-9.9-1.3-19.5-2-28.4v-0.2l-0.2-0.1L323,406.7l-14.2-6l-3.8-1.6l-1-0.4L303.7,398.6z"/>
<path class="st8" d="M249.6,401.6c0.7-0.1,1.3-0.3,1.9-0.5l5.1-1.6c5.6-1.9,11.3-3.3,17.1-4.3c5.8-1,11.7-0.9,17.5,0.2
	c2.4,0.6,4.7,1.2,7,2c-0.6-0.4-1.1-0.7-1.8-0.9c-1.7-0.7-3.4-1.3-5.1-1.7c-5.8-1.3-11.9-1.4-17.8-0.5c-5.9,1-11.6,2.6-17.2,4.6
	c-2.1,0.8-3.9,1.4-5,1.9C250.8,401,250.2,401.3,249.6,401.6z"/>
<path class="st8" d="M259.2,386c2-0.1,4-0.1,5.9,0c1.8,0.1,4,0.4,6.4,0.7c2.4,0.3,5.1,0.6,7.8,1.1c4.7,0.8,9.2,2.4,13.3,4.9
	c1.6,1.1,3.2,2.4,4.6,3.7c-0.3-0.5-0.6-0.9-1-1.3c-1-1.1-2.1-2-3.3-2.9c-4.1-2.7-8.7-4.5-13.5-5.2c-2.8-0.5-5.5-0.8-7.9-1.1
	c-2.4-0.3-4.6-0.5-6.5-0.5c-1.5-0.1-2.9,0-4.4,0.2C260.2,385.7,259.7,385.8,259.2,386L259.2,386z"/>
<path class="st6" d="M289.2,148.1c-7.8-1.3-14.7,1.7-21.3,6.1c-6.6,4.5-11.6,11-14.4,18.5c-3.1,7.8-3.6,16.4-1.4,24.6
	c1.1,4,3.1,7.8,5.7,11.1c2.6,3.3,5.9,6,9.6,7.9c10.2,5.2,23.2,3.4,32.3-3.5c9.1-6.9,14.3-18.3,14.7-29.7c0.4-7.9-1.7-15.7-6-22.4
	c-2.2-3.3-5-6.1-8.3-8.3C296.8,150.2,293.1,148.8,289.2,148.1"/>
<path class="st6" d="M267,174.7c1.1-3,0.7-6.3,1.1-9.5c1-7,6.6-12.6,13.1-15.3c6.1-2.5,13.5-2,20.7,0.4c5.1,1.5,9.6,4.5,13,8.5
	c2.2,2.7,3.7,5.9,4.4,9.3c0.7,3.4,0.6,7-0.4,10.3l-35.7-5.2c-3.3,2.8-6.7,5.6-10.8,7.1c-1.2,0.5-2.5,0.7-3.7,0.6
	c-0.6-0.1-1.2-0.3-1.7-0.7c-0.5-0.4-0.9-0.9-1.1-1.6C265.7,177.3,266.5,176,267,174.7z"/>
<path class="st9" d="M302.7,160.1l-31.2,6.6c-1.4,0.1-2.8,0.8-3.8,1.8s-1.6,2.4-1.6,3.9l0.4,67.5c0,4.6,1.6,9.1,4.4,12.7l3,3.8
	c6.7,8.7,20.5,7.9,25.7-1.9c0.3-0.6,0.6-1.1,0.7-1.8c0.1-0.6,0.3-1,0.3-1.5l0.6-6.6c0.3-6,0.3-12.1,0.3-12.1c0,0.1,12.8-1.6,16-18.1
	c1.6-8.2,1.7-21.7,1.5-32.7C318.8,171.9,312.7,159.5,302.7,160.1z"/>
<path class="st6" d="M313.8,195.6c0,0.6-0.2,1.1-0.6,1.5c-0.4,0.4-0.9,0.6-1.5,0.6c-0.3,0-0.5,0-0.8-0.1c-0.3-0.1-0.5-0.2-0.7-0.4
	c-0.2-0.2-0.4-0.4-0.5-0.7c-0.1-0.2-0.2-0.5-0.2-0.8c0-0.6,0.2-1.1,0.6-1.5c0.4-0.4,0.9-0.6,1.5-0.6c0.3,0,0.5,0,0.8,0.1
	c0.3,0.1,0.5,0.2,0.7,0.4c0.2,0.2,0.4,0.4,0.5,0.7C313.7,195.1,313.8,195.4,313.8,195.6z"/>
<path class="st6" d="M315.8,188.7c-0.3,0.3-1.8-1-4.1-1.1c-2.3-0.1-4,1-4.2,0.7s0.2-0.6,0.9-1.1c1-0.6,2.2-1,3.4-0.9
	c1.2,0,2.3,0.5,3.3,1.2C315.8,188.1,316,188.7,315.8,188.7z"/>
<path class="st6" d="M292.7,194.5c0,0.6-0.2,1.1-0.6,1.5c-0.4,0.4-0.9,0.6-1.5,0.6c-0.3,0-0.5,0-0.8-0.1c-0.3-0.1-0.5-0.2-0.7-0.4
	c-0.2-0.2-0.4-0.4-0.5-0.7c-0.1-0.2-0.2-0.5-0.2-0.8c0-0.6,0.2-1.1,0.6-1.5c0.4-0.4,0.9-0.6,1.5-0.6c0.3,0,0.5,0,0.8,0.1
	c0.3,0.1,0.5,0.2,0.7,0.4c0.2,0.2,0.4,0.4,0.5,0.7C292.6,194,292.7,194.3,292.7,194.5z"/>
<path class="st6" d="M294.2,188.2c-0.3,0.3-1.8-1-4.1-1.1c-2.3-0.1-4,1-4.2,0.7s0.2-0.6,0.9-1.1c1-0.6,2.2-1,3.4-0.9
	c1.2,0,2.3,0.5,3.3,1.2C294.1,187.6,294.3,188.1,294.2,188.2z"/>
<path class="st6" d="M301,205.6c1.2-0.3,2.5-0.5,3.7-0.5c0.6,0,1.1-0.1,1.3-0.5c0.1-0.6,0-1.2-0.3-1.7c-0.5-1.4-1-2.9-1.6-4.5
	c-2.1-6.4-3.7-11.7-3.4-11.8c0.3-0.1,2.2,5,4.4,11.5c0.5,1.6,1,3.1,1.5,4.5c0.3,0.7,0.4,1.5,0.2,2.3c-0.1,0.2-0.2,0.4-0.4,0.5
	c-0.2,0.1-0.4,0.2-0.6,0.3c-0.3,0.1-0.7,0.1-1,0.1C303.5,205.8,302.3,205.8,301,205.6z"/>
<path class="st10" d="M301.5,232.6c-7.8-0.2-15.4-2.5-21.9-6.7c0,0,5.1,11.7,21.7,10.8L301.5,232.6z"/>
<path class="st10" d="M299.8,211c-0.4-0.6-1-1-1.6-1.3c-0.6-0.3-1.3-0.4-2-0.4c-0.5,0-1,0.2-1.5,0.4c-0.5,0.2-0.9,0.6-1.2,1
	c-0.3,0.4-0.5,0.8-0.6,1.3c-0.1,0.5,0,1,0.3,1.4c0.3,0.4,0.8,0.7,1.3,0.9c0.5,0.2,1.1,0.1,1.6,0c1.1-0.3,2.1-0.9,3-1.6
	c0.3-0.2,0.5-0.4,0.7-0.7c0.1-0.1,0.1-0.3,0.1-0.4c0-0.2,0-0.3-0.1-0.4"/>
<path class="st6" d="M294.2,206.9c0.4,0,0.3,2.5,2.3,4.3c2,1.8,4.7,1.7,4.7,2c0,0.1-0.6,0.5-1.7,0.4c-1.5,0-2.8-0.6-3.9-1.6
	c-1-0.9-1.7-2.2-1.8-3.6C293.8,207.5,294.1,206.9,294.2,206.9z"/>
<path class="st6" d="M294,181.4c-0.2,0.6-2.5,0.2-5.2,0.4c-2.7,0.2-4.9,0.9-5.2,0.3c-0.1-0.3,0.3-0.9,1.1-1.4
	c1.2-0.7,2.5-1.1,3.9-1.2c1.4-0.1,2.8,0.1,4,0.6C293.7,180.6,294.2,181.1,294,181.4z"/>
<path class="st6" d="M315.6,178.8c-0.4,0.5-2-0.1-3.9-0.2c-1.9-0.1-3.5,0.2-3.9-0.3c-0.1-0.3,0.1-0.8,0.8-1.2c1-0.6,2.1-0.8,3.2-0.7
	c1.1,0.1,2.2,0.5,3,1.2C315.6,177.9,315.8,178.5,315.6,178.8z"/>
<path class="st6" d="M261.3,169.8c3.2-9.4,17.3-22.4,27.3-21.6l15.8,9.9c-0.6,2.7-1.9,5.2-3.7,7.3c-1.9,2-4.3,3.5-6.9,4.3
	c-2.8,0.8-6.2,1-8,3.4c-1.7,2.4-0.8,6.1-2.5,8.6c-2.3,3.5-8.3,3.2-10.1,7c-0.8,1.7-0.4,3.7-1.2,5.3c-1.1,2.2-6.7,4.9-9,4
	c-2.3-0.8-2.2-4.7-3-6.7c-0.9-2.4-1-4.9-0.2-7.3C260.9,179.4,259.7,174.4,261.3,169.8z"/>
<path class="st9" d="M269.8,200.3c0-1.2-1.3-4.2-2.5-4.4c-3.2-0.6-9.1-0.6-9.4,7.6c-0.5,11.3,10.9,9.4,10.9,9.2
	C268.8,212.4,269.6,204.6,269.8,200.3z"/>
<path class="st10" d="M265.5,208.3c0,0-0.2,0.1-0.5,0.3c-0.5,0.2-1,0.2-1.5,0c-1.2-0.5-2.1-2.4-2-4.5c0-1,0.2-1.9,0.7-2.8
	c0.1-0.3,0.3-0.7,0.6-0.9c0.3-0.3,0.6-0.4,1-0.5c0.2,0,0.5,0,0.7,0.1s0.4,0.3,0.5,0.5c0.1,0.3,0,0.6,0.1,0.6c0.1,0,0.3-0.2,0.2-0.6
	c-0.1-0.3-0.2-0.5-0.4-0.7c-0.3-0.2-0.7-0.4-1.1-0.3c-0.5,0.1-0.9,0.3-1.3,0.6c-0.4,0.3-0.7,0.7-0.9,1.1c-0.5,1-0.8,2-0.8,3.1
	c0,2.3,1,4.4,2.7,5c0.3,0.1,0.6,0.1,0.9,0.1s0.6-0.1,0.9-0.3C265.5,208.5,265.6,208.3,265.5,208.3z"/>
<path class="st6" d="M258.9,167c0-3.5-4.4-5.8-7.8-6.6c-3.5-0.6-7.1,0.1-10.2,1.9c-1.8,1-3.6,2.4-4,4.4c-0.4,2,1.5,4.4,3.5,3.7
	c-1,0.3-1.9,0.8-2.6,1.5c-0.8,0.7-1.3,1.5-1.7,2.5c-0.4,0.9-0.5,2-0.5,3c0.1,1,0.4,2,0.9,2.9c0.5,0.9,1.2,1.6,2,2.2
	c0.8,0.6,1.8,1,2.8,1.1c1,0.2,2,0.1,3-0.2c1-0.3,1.9-0.8,2.6-1.5c-1,3.3-3.1,6.1-5.9,8c2.9,0.4,5.9,0.1,8.6-1c2.7-1.1,5.1-2.9,7-5.2
	c1.8-2.3,3-5.1,3.4-8C260.4,172.6,260,169.7,258.9,167L258.9,167z"/>
<path class="st7" d="M251,184.9c-0.3-1.1-0.5-2.2-0.4-3.4c-0.1-5.6,1.8-11,5.2-15.4c0.7-0.9,1.5-1.8,2.4-2.4
	c0.2,0.1-3.6,3.9-5.6,9.9S251.3,184.9,251,184.9z"/>
<path class="st6" d="M301.1,154.8c1,4.6,8,10.5,11.1,14.1c5.9,6.8,7,9.1,6.9,24.3c2.7-5.3,4.9-10.4,4.6-16.4
	c-0.1-6-2.4-11.8-6.5-16.2c-2.1-2.2-4.6-3.8-7.4-4.8C307.1,154.8,304.1,154.4,301.1,154.8"/>
<path class="st7" d="M348.9,280.3c0,0-12.1-20.2-15.5-24.4c-2.7-3.2-6.1-5.7-9.9-7.3c-1.5-0.6-3.1-1.1-4.7-1.3l-17.5-3.9
	c0,0,0,11.9-12.5,12.7c-12.5,0.7-23-16.7-23-16.7s-20.2,3.1-25,5.6c-4.8,2.5-12.4,5.6-16.6,26.6l-2.9,20.5l34.9,3.2l3.3,51.7
	l17.3,12c0,0,47.9,12.4,50.9,13.3c3.1,0.8,4-77,4-77S343.9,287.3,348.9,280.3z"/>
<path class="st6" d="M326,271.6c0.3,0.5,0.5,1,0.7,1.5c0.4,1,0.9,2.4,1.5,4.2c2.9,9.4,4.1,19.2,3.6,29.1c-0.1,1.9-0.3,3.4-0.4,4.4
	c0,0.5-0.1,1.1-0.3,1.6c-0.1-0.5-0.1-1.1,0-1.6c0.1-1.1,0.1-2.6,0.2-4.4c0.1-4.9-0.1-9.8-0.7-14.6c-0.6-4.8-1.6-9.6-2.9-14.3
	c-0.5-1.8-0.9-3.3-1.3-4.3C326.2,272.7,326.1,272.1,326,271.6L326,271.6z"/>
<path class="st9" d="M324.5,356.3L259,342.1l-3-46.9l-29.1-2.7c0,0,1.1,32,2.2,41.6c1.6,13.7,9.7,32.4,14.4,36.1c4.7,3.8,84,2,84,2
	L324.5,356.3z"/>
<path class="st9" d="M361.8,364.8c-0.2,0.5-0.6,0.8-1,1.1c-0.4,0.3-0.9,0.4-1.4,0.3c-0.2,0-0.4-0.1-0.6-0.1
	c-1.5-0.5-1.3-3.4-1.3-3.4l-6.9-1.1c0,0-9,5.8-12.3,9.7c-3.2,3.9-11.4,0.7-11.4,0.7l-2.8-14.8l12.8-11.6c0,0-0.8,0.7,0.1-1.5
	c0.9-2.2,4.9-1.3,4.9-1.3c0.6-1.1,3.2-1.5,3.2-1.5l11.2,1.3c1.1,0.1,2.2,0.5,3.2,1.1c1,0.6,1.8,1.4,2.4,2.4l4.7,7.5
	c0,0,2.5,5.4,2.1,6.7c-0.2,0.5-0.5,1-1,1.2c-0.5,0.3-1,0.4-1.6,0.2c0,0-0.6,3.6-1.5,3.7C363.5,365.5,362.6,365.3,361.8,364.8
	L361.8,364.8z"/>
<path class="st10" d="M337.9,354.2c0,0.1,1.5,0,3.9,0.1c3.1,0.1,6.2,0.7,9.2,1.7c1.6,0.5,3.2,1.2,4.7,2c1.3,0.8,2.8,1.3,3.2,2.4
	c0.1,0.2,0.1,0.5,0.1,0.7c0,0.2-0.1,0.5-0.2,0.7c-0.2,0.3-0.5,0.6-0.9,0.7c-0.3,0.1-0.6,0.2-1,0.1c0,0,0.4,0.3,1.1,0.1
	c0.4-0.1,0.8-0.4,1.1-0.7c0.2-0.2,0.3-0.5,0.4-0.8c0-0.3,0-0.6-0.1-0.9c-0.3-0.6-0.8-1.2-1.3-1.6c-0.6-0.4-1.2-0.8-2-1.2
	c-1.5-0.8-3.1-1.6-4.8-2.1c-3-1-6.2-1.5-9.4-1.5C340.5,353.7,339.2,353.9,337.9,354.2L337.9,354.2z"/>
<path class="st10" d="M337.1,361.3c0,0.2,4.6,0,10.2,0.4c5.6,0.4,10.1,1,10.1,0.8c-0.9-0.4-1.9-0.6-2.9-0.7
	c-2.4-0.4-4.8-0.7-7.2-0.8c-2.4-0.1-4.8-0.1-7.3,0C339.1,361,338.1,361.1,337.1,361.3L337.1,361.3z"/>
<path class="st10" d="M361.7,364.5c0.1-0.4,0.2-0.8,0.1-1.2c0.1-1.1,0.1-2.2,0-3.3c0-0.8-0.1-1.5-0.3-2.3c-0.2-0.9-0.6-1.7-1.1-2.4
	c-1.1-1.7-2.5-3.2-4.2-4.3c-1.7-1.1-3.5-2.1-5.4-2.7c-1.6-0.5-3.2-0.7-4.9-0.7c-1.3,0-2.5,0-3.3,0c-0.4,0-0.8,0-1.2,0.1
	c1.5,0.2,3,0.3,4.4,0.4c1.6,0.1,3.2,0.4,4.7,0.9c1.8,0.7,3.6,1.6,5.1,2.7c1.6,1.1,3,2.5,4,4c0.9,1.3,1.4,2.8,1.5,4.4
	C361.6,362.8,361.5,364.6,361.7,364.5z"/>
<path class="st10" d="M345.5,344.2c0,0.1,1.7,0.1,4.4,0.5c2.7,0.3,6.7,0.6,9.1,4.1c2.3,2.7,4.2,5.6,5.7,8.8c0.5,1.4,0.8,2.8,1.1,4.2
	c0.1-0.4,0.1-0.8,0.1-1.2c-0.1-1.1-0.3-2.2-0.7-3.2c-1.4-3.3-3.2-6.4-5.6-9.1c-0.6-0.8-1.4-1.6-2.2-2.2c-0.8-0.6-1.7-1-2.7-1.2
	c-1.6-0.4-3.1-0.7-4.8-0.8C348.4,344,346.9,344,345.5,344.2z"/>
<path class="st10" d="M340.6,368.9c0.2-0.1,0.5-0.3,0.7-0.5c0.5-0.4,1.1-0.9,1.9-1.5c2.4-1.8,4.8-3.5,7.4-5.1h-0.2l6.9,1.2l-0.2-0.3
	c0,0.6,0,1.1,0.1,1.7c0.1,0.6,0.4,1.2,0.8,1.7c0.3,0.2,0.6,0.4,0.9,0.4c0.3,0.1,0.7,0.1,1,0c0.7-0.1,1.3-0.4,1.7-1
	c0.1-0.1,0.2-0.3,0.3-0.4l0.1-0.1v-0.1l-0.4,0.1l0.2,0.1l0.9,0.3c0.3,0.1,0.6,0.2,1,0.2c0.2,0,0.3,0,0.5,0c0.2,0,0.4,0,0.6-0.1
	c0.3-0.2,0.5-0.6,0.7-0.9c0.1-0.3,0.3-0.6,0.4-0.9c0.2-0.6,0.3-1.3,0.4-2l-0.4,0.3c0.5,0.1,1,0.1,1.4-0.1c0.5-0.2,0.9-0.4,1.2-0.8
	c0.3-0.4,0.5-0.9,0.5-1.3c0-0.5-0.1-0.9-0.2-1.3c-0.5-1.7-1.2-3.4-1.9-5l0,0c-0.8-1.3-1.7-2.6-2.5-4l-1.6-2.5
	c-0.5-0.9-1.1-1.7-1.8-2.5c-0.7-0.7-1.6-1.3-2.5-1.7c-0.9-0.3-1.9-0.5-2.9-0.6l-10.6-1.2h-0.1c-0.6,0.1-1.3,0.3-1.9,0.5
	c-0.6,0.2-1.2,0.6-1.6,1.1l0.4-0.1c-0.6-0.3-1.2-0.4-1.8-0.3c-0.6,0-1.2,0.2-1.8,0.5c-0.9,0.7-1.6,1.7-1.8,2.8l0.1-0.1l-8.8,7.9
	c-1,0.9-1.8,1.6-2.4,2.2c-0.3,0.2-0.6,0.5-0.8,0.8c0.3-0.2,0.6-0.4,0.9-0.7l2.5-2.1l9-7.8v-0.1c0.2-1,0.8-1.9,1.6-2.5
	c0.5-0.3,1-0.4,1.5-0.4c0.5,0,1.1,0.1,1.5,0.3l0.2,0.1l0.1-0.2c0.4-0.4,0.8-0.7,1.3-0.9c0.6-0.2,1.1-0.3,1.7-0.4h-0.1l10.6,1.2
	c0.9,0.1,1.8,0.2,2.7,0.6c0.9,0.3,1.6,0.9,2.3,1.5c0.6,0.7,1.2,1.5,1.7,2.3l1.6,2.5l2.5,4c0.7,1.6,1.4,3.2,1.9,4.9
	c0.1,0.4,0.2,0.8,0.2,1.2c0,0.4-0.1,0.7-0.3,1c-0.2,0.3-0.5,0.5-0.9,0.6c-0.3,0.1-0.7,0.1-1,0.1h-0.4v0.3c-0.1,0.6-0.2,1.3-0.4,1.9
	c-0.1,0.6-0.4,1.1-0.7,1.5c-0.1,0-0.2,0-0.3,0c-0.1,0-0.3,0-0.4,0c-0.3-0.1-0.6-0.1-0.9-0.2c-0.3-0.1-0.6-0.2-0.8-0.3l-0.2-0.1
	l-0.4,0.1v0.1c-0.1,0.1-0.1,0.2-0.2,0.3c-0.3,0.4-0.8,0.7-1.3,0.8c-0.3,0-0.5,0-0.8,0c-0.2,0-0.5-0.1-0.6-0.3
	c-0.6-0.8-0.9-1.9-0.8-2.9v-0.3h-0.2l-7-1.1h-0.1h-0.1c-2.6,1.6-5,3.4-7.3,5.3c-0.8,0.7-1.3,1.2-1.8,1.6
	C341.1,368.5,340.8,368.7,340.6,368.9L340.6,368.9z"/>
<path class="st0" d="M433.5,321.8l-86.3,0.7c-2.8,0-5.5,1.3-5.9,4l-9.4,62.9h-44.5c-0.7,0-1.3,0.3-1.8,0.8c-0.5,0.5-0.8,1.1-0.8,1.8
	c0,0.7,0.3,1.3,0.8,1.8c0.5,0.5,1.1,0.8,1.8,0.8h142l9.7-66.4c0.1-0.8,0.1-1.6-0.2-2.4c-0.2-0.8-0.6-1.5-1.2-2.1
	c-0.5-0.6-1.2-1.1-1.9-1.4C435.1,321.9,434.4,321.8,433.5,321.8L433.5,321.8z"/>
<path class="st6" d="M433.5,321.8c0.5,0,0.9,0,1.3,0.1c1.3,0.3,2.5,1.1,3.3,2.2c0.6,0.8,1,1.7,1.1,2.7c0,1.2-0.1,2.4-0.3,3.6
	l-1.3,8.8c-1.9,13.2-4.6,32.2-8,55.6v0.2h-0.3L291.6,395h-3.7c-0.7,0.1-1.4-0.1-2-0.4c-0.6-0.3-1.1-0.9-1.3-1.6
	c-0.2-0.7-0.2-1.4,0-2c0.2-0.7,0.7-1.2,1.3-1.5c0.6-0.3,1.3-0.4,1.9-0.4h44l-0.3,0.3l9.4-62.4c0.1-1.3,0.7-2.4,1.6-3.3
	c0.9-0.8,2.1-1.3,3.3-1.5c1.2-0.1,2.3-0.1,3.5-0.1h3.4l13-0.1l23.1-0.1l32.9-0.2h8.8h2.3L433.5,321.8c0-0.1-0.3-0.1-0.8-0.1h-2.3
	l-8.8,0.1l-32.9,0.4l-23.1,0.2l-13,0.1h-3.4c-1.1,0-2.3,0-3.4,0.1c-1.1,0.2-2.2,0.6-3,1.3c-0.8,0.8-1.3,1.8-1.3,3
	c-2.8,18.9-5.9,39.9-9.3,62.4v0.3h-44.3c-0.6-0.1-1.1,0-1.6,0.3c-0.5,0.3-0.8,0.7-1,1.2s-0.2,1,0,1.5c0.2,0.5,0.5,0.9,1,1.2
	c0.5,0.3,1.1,0.4,1.6,0.3h3.7l137.8,0.1l-0.3,0.2l8.2-55.6c0.5-3.3,0.9-6.2,1.3-8.7c0.2-1.1,0.4-2.3,0.4-3.5c-0.1-1-0.4-1.9-1-2.7
	c-0.8-1.1-1.9-1.9-3.2-2.2C434.4,321.7,434,321.7,433.5,321.8z"/>
<path class="st5" d="M381.3,357.4c0,1.1,0.3,2.1,0.9,3c0.6,0.9,1.4,1.6,2.4,2c1,0.4,2.1,0.5,3.1,0.3c1-0.2,2-0.7,2.8-1.5
	c0.8-0.8,1.3-1.7,1.5-2.8c0.2-1,0.1-2.1-0.3-3.1c-0.4-1-1.1-1.8-2-2.4c-0.9-0.6-1.9-0.9-3-0.9c-1.4,0-2.8,0.6-3.8,1.6
	C381.9,354.6,381.3,356,381.3,357.4z"/>
<path class="st6" d="M335.4,394.1c0.1,0,2.9-16,6.1-35.8c3.3-19.8,5.8-35.8,5.7-35.9c-0.1,0-2.9,16-6.1,35.8
	C337.8,378,335.3,394.1,335.4,394.1z"/>
<g>
	<g>
		<path class="st12" d="M304.9,191.9c-2.4-0.2-8.7-0.2-9.8,0.1c0,0.4-0.1,1.5-0.1,1.9c1.8-0.3,6.4-0.3,9.9,0
			C304.9,193.2,304.8,192.6,304.9,191.9z"/>
	</g>
	<path class="st12" d="M321.9,190.3c-0.1-0.3-0.2-1.6-0.4-1.9c-0.1-0.2-0.9-0.4-1.3-0.5c-0.8-0.2-2.4-0.3-4.3-0.2
		c-2.2,0-4.9,0.3-7.2,0.7c0,0-0.1,0-0.1,0c0,0,0,0,0,0c-1.4,0.3-2.7,0.6-3.8,1c-0.4,0.2-0.8,1.2-0.8,2.3c0,0,0,0.1,0,0.1
		c0,0,0,0,0,0c0.2,3.5,1.8,9,4,9.6c2.7,0.8,8.6,0.1,11.8-0.6c0.6-0.1,1.9-1.1,2.1-2c0.2-0.9,0.2-2.8,0.1-4.8
		C323.3,193.2,321.9,190.3,321.9,190.3z M321,197.7c0,0.6-0.4,1.4-1.5,1.9c-2.3,0.9-10.9,2.1-12.2,0.4c-1.8-2.3-2.4-6.2-2.5-7.2
		c-0.2-1.2,0.1-1.8,0.5-2.1c1.7-1.7,11.3-2,14.1-1.7c0.5,0.1,1,0.8,1.1,1.4C321,192.6,321.1,196.6,321,197.7z"/>
	<path class="st12" d="M295.8,191.1c0-1.1-0.7-2.2-1.3-2.3c-6.1-1.9-18.8-3.1-22.5-2.2c-0.6,0.1-1.7,1.1-1.7,1.4
		c-0.1,0.4-0.1,0.8-0.2,1.2l-7-0.9c-0.2,1-0.3,2-0.5,3l8.1,1.9c0,1.9,0.2,3.6,0.5,4.4c0.4,0.9,2.2,2,3.2,2.1
		c4.6,0.8,13.2,1.8,16.9,1.1c3-0.5,4.8-6.1,4.7-9.7C295.8,191.2,295.8,191.1,295.8,191.1z M291.9,199.5c-2.1,1.4-14.1,0.2-17.6-0.9
		c-1.6-0.5-2.2-1.4-2.3-2c-0.1-0.9,0-6.9,0.1-7.5c0.1-0.5,0.7-1.3,1.4-1.4c4.1-0.2,17.8,0.5,20.4,2.3c0.6,0.4,0.9,0.9,0.9,2.2
		C294.8,193.2,293.7,198.3,291.9,199.5z"/>
</g>
<polygon class="st13" points="319.1,193.2 321,194.6 321.4,192.6 319.1,191.4 "/>
<polyline class="st13" points="262.5,191.3 259.3,197.7 257.1,195.7 263,188.3 "/>
</svg>
