<svg width="429" height="351" viewBox="0 0 429 351" fill="none" xmlns="http://www.w3.org/2000/svg">
<g filter="url(#filter0_d_9_155)">
<path d="M221.508 21.4935H27L42.1144 286.384H236.612L221.508 21.4935Z" fill="#263238"/>
<path d="M225.286 21.4935H30.7786L45.8929 286.384H240.401L225.286 21.4935Z" fill="#ED2B2B"/>
<path opacity="0.5" d="M211.888 30.3979H39.6724L52.0186 270.175H228.707L211.888 30.3979Z" fill="black"/>
<path d="M39.6724 30.3979C52.4711 110.327 43.693 190.256 56.5129 270.175H233.18C220.381 190.256 229.16 110.327 216.34 30.3979H39.6724Z" fill="white"/>
<g opacity="0.3">
<path d="M75.7954 102.244C79.6969 102.275 83.4377 103.802 86.246 106.511C89.0544 109.219 90.7162 112.902 90.8887 116.8C90.9673 118.675 90.6635 120.547 89.9958 122.301C89.3281 124.054 88.3105 125.654 87.0048 127.002C85.6991 128.35 84.1328 129.418 82.4011 130.142C80.6694 130.865 78.8087 131.228 76.9321 131.209C73.0546 131.177 69.3383 129.654 66.5536 126.956C63.7689 124.257 62.1296 120.591 61.9756 116.716C61.8945 114.847 62.1911 112.98 62.8475 111.228C63.504 109.475 64.5069 107.873 65.7963 106.517C67.0898 105.173 68.6435 104.107 70.3626 103.383C72.0817 102.659 73.9302 102.293 75.7954 102.307M75.6901 99.2651C73.4214 99.2509 71.1737 99.6996 69.0843 100.584C66.9949 101.468 65.1079 102.769 63.5385 104.407C61.9691 106.046 60.7504 107.987 59.9568 110.112C59.1633 112.238 58.8116 114.503 58.9233 116.769C59.107 121.447 61.0845 125.874 64.4454 129.133C67.8063 132.392 72.2928 134.233 76.9742 134.272C79.2533 134.291 81.5124 133.847 83.6149 132.967C85.7173 132.087 87.6193 130.79 89.2056 129.154C90.7919 127.517 92.0295 125.576 92.8435 123.447C93.6575 121.318 94.0308 119.046 93.941 116.769C93.7149 112.07 91.6969 107.637 88.3021 104.382C84.9073 101.126 80.3938 99.2947 75.6901 99.2651V99.2651Z" fill="#ED2B2B"/>
</g>
<path d="M173.481 233.547H117.697C117.279 233.54 116.865 233.622 116.482 233.787C116.099 233.953 115.755 234.198 115.475 234.507C115.194 234.816 114.982 235.181 114.853 235.578C114.725 235.975 114.682 236.395 114.728 236.81V236.81C114.83 237.697 115.25 238.518 115.909 239.119C116.569 239.721 117.425 240.064 118.318 240.083H174.102C174.519 240.091 174.934 240.009 175.317 239.842C175.7 239.676 176.043 239.429 176.322 239.119C176.602 238.809 176.811 238.442 176.936 238.043C177.062 237.645 177.1 237.224 177.049 236.81V236.81C176.95 235.926 176.533 235.109 175.877 234.509C175.221 233.909 174.37 233.567 173.481 233.547V233.547Z" fill="#E0E0E0"/>
<path d="M203.32 219.812H116.571C116.151 219.804 115.734 219.885 115.348 220.049C114.961 220.214 114.614 220.458 114.329 220.766C114.044 221.074 113.827 221.439 113.693 221.837C113.558 222.235 113.51 222.656 113.55 223.074C113.625 223.959 114.027 224.784 114.677 225.389C115.326 225.993 116.178 226.335 117.065 226.348H203.773C204.193 226.36 204.611 226.283 205 226.121C205.389 225.96 205.738 225.719 206.027 225.412C206.315 225.106 206.535 224.742 206.673 224.345C206.811 223.947 206.862 223.525 206.825 223.106V223.106C206.757 222.219 206.36 221.389 205.711 220.779C205.063 220.17 204.21 219.825 203.32 219.812V219.812Z" fill="#E0E0E0"/>
<g opacity="0.3">
<path d="M77.5742 158.902C81.447 158.929 85.1593 160.453 87.9349 163.154C90.7105 165.855 92.3345 169.524 92.4675 173.395C92.5384 175.269 92.2311 177.137 91.5638 178.89C90.8965 180.642 89.883 182.242 88.5837 183.594C87.2834 184.941 85.7226 186.008 83.9963 186.732C82.27 187.456 80.4143 187.821 78.5425 187.804C74.6603 187.777 70.9375 186.257 68.1466 183.558C65.3558 180.86 63.7113 177.19 63.5545 173.311C63.4906 171.434 63.8067 169.564 64.4836 167.812C65.1606 166.061 66.1845 164.465 67.494 163.119C68.8034 161.773 70.3713 160.706 72.1035 159.981C73.8357 159.256 75.6965 158.889 77.5742 158.902M77.5742 155.849C75.2936 155.835 73.0337 156.282 70.93 157.163C68.8263 158.043 66.9221 159.34 65.3318 160.974C63.7414 162.609 62.4976 164.548 61.6749 166.675C60.8522 168.802 60.4676 171.073 60.5442 173.353C60.7311 178.044 62.7192 182.482 66.095 185.744C69.4709 189.006 73.9744 190.841 78.6688 190.867C80.9426 190.876 83.1947 190.424 85.2892 189.539C87.3837 188.654 89.2774 187.354 90.8559 185.718C92.4345 184.081 93.6652 182.142 94.474 180.017C95.2828 177.892 95.6529 175.625 95.5619 173.353C95.4044 168.677 93.4438 164.244 90.0908 160.981C86.7378 157.718 82.2525 155.879 77.5742 155.849V155.849Z" fill="#ED2B2B"/>
</g>
<path d="M142.515 113.106H112.676C111.799 113.099 110.959 112.755 110.328 112.146C109.697 111.537 109.325 110.709 109.287 109.832V109.832C109.273 109.409 109.344 108.987 109.496 108.592C109.649 108.196 109.879 107.836 110.174 107.531C110.468 107.227 110.821 106.985 111.211 106.82C111.601 106.654 112.021 106.569 112.445 106.57H142.273C143.15 106.577 143.992 106.918 144.626 107.524C145.26 108.131 145.638 108.956 145.683 109.832V109.832C145.699 110.258 145.629 110.682 145.476 111.079C145.324 111.476 145.093 111.839 144.797 112.144C144.501 112.45 144.146 112.693 143.754 112.858C143.362 113.023 142.941 113.108 142.515 113.106V113.106Z" fill="#E0E0E0"/>
<path d="M176.954 113.106H156.745C155.868 113.099 155.026 112.755 154.393 112.146C153.761 111.538 153.386 110.709 153.346 109.832V109.832C153.332 109.409 153.403 108.987 153.555 108.592C153.708 108.196 153.938 107.836 154.233 107.531C154.527 107.227 154.88 106.985 155.27 106.82C155.66 106.654 156.08 106.569 156.503 106.57H176.722C177.599 106.577 178.439 106.919 179.071 107.525C179.703 108.132 180.079 108.957 180.122 109.832V109.832C180.138 110.258 180.067 110.682 179.915 111.079C179.763 111.476 179.532 111.839 179.236 112.144C178.94 112.45 178.585 112.693 178.193 112.858C177.801 113.023 177.38 113.108 176.954 113.106V113.106Z" fill="#E0E0E0"/>
<path d="M193.247 126.841H113.15C112.273 126.837 111.432 126.493 110.803 125.883C110.173 125.274 109.804 124.444 109.771 123.568V123.568C109.757 123.145 109.828 122.723 109.981 122.327C110.133 121.932 110.363 121.571 110.658 121.267C110.952 120.962 111.305 120.72 111.695 120.555C112.086 120.39 112.505 120.305 112.929 120.305H193.016C193.889 120.31 194.728 120.652 195.355 121.26C195.983 121.868 196.351 122.695 196.384 123.568C196.399 123.991 196.33 124.412 196.179 124.807C196.029 125.202 195.801 125.563 195.508 125.868C195.216 126.174 194.865 126.417 194.477 126.584C194.088 126.751 193.67 126.839 193.247 126.841V126.841Z" fill="#E0E0E0"/>
<g opacity="0.3">
<path d="M79.8581 215.486C83.7844 215.563 87.5443 217.085 90.4184 219.761C93.2925 222.437 95.0788 226.079 95.4356 229.989C95.6244 231.822 95.431 233.673 94.8675 235.427C94.3041 237.181 93.3829 238.799 92.1622 240.178C90.9313 241.534 89.425 242.61 87.744 243.337C86.0631 244.063 84.2465 244.421 82.4157 244.388C78.4554 244.324 74.6549 242.816 71.7282 240.147C68.8016 237.478 66.9504 233.832 66.5225 229.895C66.342 228.049 66.5544 226.186 67.1458 224.428C67.7372 222.67 68.6942 221.057 69.9538 219.696C71.2212 218.344 72.7566 217.271 74.462 216.546C76.1674 215.821 78.0052 215.46 79.8581 215.486M79.7107 212.444C77.4567 212.4 75.2187 212.832 73.1436 213.714C71.0684 214.595 69.203 215.905 67.6696 217.558C66.1361 219.21 64.9693 221.168 64.2456 223.304C63.5219 225.439 63.2576 227.703 63.4702 229.947C64.2806 239.61 73.0482 247.451 82.7104 247.451C92.3727 247.451 99.2983 239.61 98.4984 229.947C98.0809 225.227 95.932 220.827 92.4655 217.596C88.9989 214.364 84.4596 212.529 79.7213 212.444H79.7107Z" fill="#ED2B2B"/>
</g>
<path d="M206.93 176.931H114.507C114.084 176.931 113.664 177.016 113.274 177.181C112.884 177.347 112.531 177.589 112.237 177.893C111.942 178.198 111.712 178.558 111.559 178.954C111.407 179.349 111.336 179.771 111.35 180.194V180.194C111.388 181.067 111.759 181.893 112.388 182.5C113.017 183.107 113.855 183.45 114.729 183.457H207.193C207.617 183.457 208.036 183.372 208.427 183.207C208.817 183.042 209.17 182.8 209.464 182.495C209.759 182.191 209.989 181.83 210.142 181.435C210.294 181.04 210.365 180.618 210.351 180.194V180.194C210.318 179.312 209.942 178.477 209.303 177.868C208.665 177.259 207.813 176.923 206.93 176.931V176.931Z" fill="#E0E0E0"/>
<path d="M185.027 163.185H114.107C113.683 163.185 113.263 163.27 112.872 163.436C112.481 163.602 112.128 163.845 111.833 164.151C111.538 164.456 111.308 164.818 111.156 165.215C111.004 165.611 110.934 166.034 110.95 166.459V166.459C110.98 167.331 111.346 168.158 111.972 168.766C112.598 169.374 113.435 169.717 114.307 169.722H185.238C185.661 169.722 186.081 169.637 186.471 169.472C186.861 169.306 187.214 169.064 187.508 168.76C187.803 168.455 188.033 168.095 188.186 167.699C188.338 167.304 188.409 166.882 188.395 166.459V166.459C188.37 165.582 188.005 164.749 187.376 164.138C186.747 163.527 185.904 163.185 185.027 163.185V163.185Z" fill="#E0E0E0"/>
<path d="M77.3951 127.031L76.1531 124.989C73.4271 120.537 67.7329 116.569 65.7751 115.4L67.2487 112.79C71.1148 115.13 74.5591 118.105 77.4372 121.589C81.9105 115.579 88.4467 109.401 97.2985 102.728L99.2035 105.191C89.7308 112.316 83.0156 118.874 78.7107 125.115C78.2792 125.757 77.8371 126.399 77.3951 127.031Z" fill="#ED2B2B"/>
<path d="M78.9739 183.657C78.5634 182.973 78.1424 182.289 77.7214 181.615C74.9848 177.163 69.3012 173.195 67.3645 172.016L68.8591 169.406C72.7053 171.752 76.1313 174.727 78.995 178.205C83.4788 172.205 90.0676 166.017 99.0562 159.344L100.919 161.806C91.3201 168.932 84.5629 175.489 80.2791 181.731L78.9739 183.657Z" fill="#ED2B2B"/>
<path d="M82.5841 240.41L81.1948 238.368C78.1635 233.915 72.2904 229.947 70.2695 228.779L71.6378 226.169C75.6151 228.526 79.1986 231.491 82.2579 234.957C86.3838 228.958 92.6569 222.769 101.372 216.107L103.34 218.57C94.0357 225.695 87.6468 232.252 83.763 238.494L82.5841 240.41Z" fill="#ED2B2B"/>
<path d="M149.146 50.4908C147.294 54.5325 145.396 58.5707 143.452 62.6054C147.459 64.5984 150.885 67.59 153.399 71.2919C155.914 74.9937 157.433 79.2809 157.809 83.7402H171.797C170.871 69.4363 161.671 56.9849 149.146 50.4908Z" fill="#ED2B2B"/>
<path d="M95.8566 83.7613H109.845C109.502 79.8047 110.223 75.8283 111.932 72.2438C113.642 68.6593 116.279 65.597 119.57 63.3738C116.848 59.332 114.083 55.2903 111.276 51.2486C101.067 57.8585 94.9619 69.9731 95.8566 83.7613Z" fill="#263238"/>
<path d="M130.222 45.7965C123.51 45.7301 116.926 47.625 111.276 51.2486C114.083 55.2903 116.848 59.332 119.57 63.3738C123.217 60.9907 127.486 59.7384 131.843 59.7741C135.873 59.7974 139.84 60.7749 143.42 62.6265C145.357 58.5847 147.255 54.5465 149.115 50.5118C143.283 47.4552 136.805 45.8384 130.222 45.7965V45.7965Z" fill="#ED2B2B"/>
<path opacity="0.5" d="M130.222 45.7965C123.51 45.7301 116.926 47.625 111.276 51.2486C114.083 55.2903 116.848 59.332 119.57 63.3738C123.217 60.9907 127.486 59.7384 131.843 59.7741C135.873 59.7974 139.84 60.7749 143.42 62.6265C145.357 58.5847 147.255 54.5465 149.115 50.5118C143.283 47.4552 136.805 45.8384 130.222 45.7965V45.7965Z" fill="#263238"/>
<path d="M147.315 74.1833C147.315 74.1833 133.19 79.9617 131.695 81.0142C131.338 81.2845 131.039 81.6235 130.815 82.0112C130.591 82.3989 130.447 82.8275 130.391 83.2718C130.335 83.7161 130.368 84.1671 130.489 84.5982C130.61 85.0293 130.816 85.4319 131.095 85.7822C131.623 86.531 132.42 87.0452 133.32 87.2161C134.22 87.387 135.151 87.2012 135.916 86.6979C137.463 85.5822 147.336 74.1833 147.315 74.1833ZM132.474 84.7086C132.337 84.5362 132.235 84.3381 132.176 84.1259C132.116 83.9137 132.099 83.6917 132.127 83.4729C132.154 83.2542 132.225 83.0432 132.335 82.8523C132.446 82.6614 132.593 82.4945 132.769 82.3615C133.148 82.1176 133.606 82.0286 134.049 82.1128C134.491 82.1971 134.885 82.4481 135.148 82.8141C135.285 82.9865 135.386 83.1846 135.446 83.3968C135.506 83.609 135.522 83.831 135.495 84.0497C135.467 84.2684 135.396 84.4794 135.286 84.6703C135.176 84.8612 135.029 85.0281 134.853 85.1612C134.479 85.4094 134.024 85.5052 133.582 85.4288C133.14 85.3525 132.743 85.1099 132.474 84.7507V84.7086Z" fill="#263238"/>
<path d="M164.061 67.4997C164.13 68.1332 164.063 68.7742 163.864 69.3798C163.666 69.9855 163.341 70.5419 162.911 71.012C162.481 71.4821 161.955 71.8551 161.369 72.1061C160.783 72.3571 160.151 72.4803 159.514 72.4676C158.164 72.4411 156.87 71.921 155.877 71.0057C154.884 70.0904 154.261 68.8432 154.125 67.4997C154.053 66.8696 154.116 66.2313 154.311 65.6277C154.505 65.024 154.827 64.4689 155.253 63.9995C155.68 63.5301 156.202 63.1573 156.784 62.906C157.366 62.6547 157.995 62.5306 158.63 62.5422C159.983 62.5651 161.282 63.0815 162.282 63.9943C163.282 64.9071 163.915 66.1536 164.061 67.4997V67.4997Z" fill="white"/>
<path d="M157.903 66.3629C157.914 66.4629 157.903 66.564 157.871 66.6595C157.84 66.755 157.789 66.8429 157.722 66.9174C157.654 66.9918 157.572 67.0513 157.48 67.0917C157.388 67.1322 157.288 67.1529 157.187 67.1523C156.971 67.1507 156.764 67.0692 156.604 66.9234C156.445 66.7776 156.345 66.5779 156.324 66.3629C156.312 66.2626 156.322 66.1609 156.353 66.0646C156.383 65.9683 156.434 65.8797 156.502 65.8049C156.57 65.73 156.653 65.6706 156.746 65.6307C156.839 65.5908 156.939 65.5713 157.04 65.5735C157.256 65.5751 157.464 65.6567 157.623 65.8025C157.783 65.9483 157.882 66.1479 157.903 66.3629V66.3629Z" fill="#263238"/>
<path d="M161.671 66.3629C161.682 66.4638 161.671 66.5658 161.639 66.6621C161.607 66.7583 161.555 66.8467 161.486 66.9213C161.417 66.996 161.334 67.0552 161.24 67.095C161.147 67.1348 161.046 67.1544 160.945 67.1523C160.73 67.1462 160.525 67.0631 160.367 66.9182C160.208 66.7733 160.107 66.5762 160.082 66.3629C160.07 66.2617 160.08 66.159 160.111 66.062C160.142 65.9649 160.194 65.8758 160.263 65.8008C160.332 65.7258 160.417 65.6666 160.511 65.6273C160.605 65.5881 160.706 65.5698 160.808 65.5735C161.024 65.5751 161.232 65.6567 161.391 65.8025C161.551 65.9483 161.651 66.1479 161.671 66.3629V66.3629Z" fill="#263238"/>
<path d="M159.324 70.4889C158.283 70.4807 157.282 70.087 156.514 69.3837C156.442 69.3109 156.402 69.2125 156.402 69.1101C156.402 69.0076 156.442 68.9093 156.514 68.8364C156.549 68.7995 156.592 68.7701 156.639 68.75C156.686 68.73 156.736 68.7196 156.788 68.7196C156.839 68.7196 156.889 68.73 156.936 68.75C156.983 68.7701 157.026 68.7995 157.061 68.8364C157.684 69.4106 158.498 69.7331 159.345 69.7416V69.7416C159.739 69.7504 160.129 69.6762 160.492 69.5239C160.855 69.3715 161.181 69.1445 161.45 68.8575C161.522 68.7821 161.62 68.7381 161.723 68.7352C161.775 68.7337 161.826 68.7423 161.874 68.7606C161.922 68.7789 161.966 68.8064 162.003 68.8417C162.04 68.8769 162.07 68.9192 162.091 68.966C162.112 69.0129 162.124 69.0634 162.125 69.1147C162.127 69.166 162.118 69.2171 162.1 69.2651C162.081 69.3131 162.054 69.357 162.019 69.3943C161.672 69.7563 161.253 70.0409 160.788 70.2295C160.324 70.4182 159.825 70.5066 159.324 70.4889V70.4889Z" fill="#263238"/>
<path d="M136.011 52.7011C136.098 53.3274 136.048 53.9651 135.864 54.5702C135.681 55.1753 135.368 55.7333 134.947 56.2057C134.527 56.6781 134.009 57.0536 133.43 57.3062C132.85 57.5589 132.222 57.6827 131.59 57.6691C130.229 57.6373 128.924 57.1187 127.912 56.2073C126.9 55.2958 126.248 54.0519 126.075 52.7011C125.981 52.0777 126.025 51.4412 126.203 50.8365C126.381 50.2317 126.69 49.6735 127.108 49.2009C127.525 48.7283 128.041 48.353 128.619 48.1012C129.197 47.8494 129.823 47.7274 130.453 47.7437C131.817 47.7758 133.126 48.2922 134.144 49.2004C135.162 50.1087 135.824 51.3496 136.011 52.7011Z" fill="white"/>
<path d="M129.822 51.5433C129.835 51.6422 129.828 51.7428 129.799 51.8383C129.77 51.9339 129.721 52.0221 129.655 52.097C129.589 52.1719 129.508 52.2317 129.417 52.2724C129.326 52.3131 129.227 52.3336 129.127 52.3327C128.91 52.3273 128.702 52.2449 128.54 52.1004C128.378 51.9558 128.273 51.7583 128.243 51.5433C128.228 51.4442 128.234 51.3428 128.262 51.2465C128.29 51.1502 128.339 51.0612 128.405 50.9858C128.472 50.9105 128.554 50.8507 128.646 50.8106C128.738 50.7705 128.837 50.7512 128.938 50.7539C129.155 50.7572 129.365 50.8388 129.527 50.9838C129.689 51.1288 129.794 51.3274 129.822 51.5433V51.5433Z" fill="#263238"/>
<path d="M133.579 51.5433C133.593 51.6431 133.585 51.7446 133.556 51.8409C133.526 51.9372 133.476 52.026 133.409 52.1011C133.342 52.1761 133.259 52.2358 133.167 52.2758C133.075 52.3158 132.975 52.3352 132.874 52.3327C132.658 52.3252 132.451 52.2422 132.289 52.098C132.128 51.9537 132.022 51.7575 131.99 51.5433C131.976 51.4436 131.984 51.3421 132.014 51.2457C132.043 51.1494 132.093 51.0607 132.16 50.9856C132.227 50.9105 132.31 50.8509 132.402 50.8109C132.494 50.7709 132.594 50.7515 132.695 50.7539C132.912 50.7594 133.12 50.8417 133.282 50.9863C133.444 51.1309 133.549 51.3283 133.579 51.5433Z" fill="#263238"/>
<path d="M133.684 54.7009H128.759C128.665 54.6856 128.58 54.6374 128.518 54.5651C128.457 54.4928 128.423 54.4011 128.423 54.3062C128.423 54.2113 128.457 54.1196 128.518 54.0473C128.58 53.975 128.665 53.9268 128.759 53.9115H133.684C133.778 53.9268 133.863 53.975 133.925 54.0473C133.986 54.1196 134.02 54.2113 134.02 54.3062C134.02 54.4011 133.986 54.4928 133.925 54.5651C133.863 54.6374 133.778 54.6856 133.684 54.7009V54.7009Z" fill="#263238"/>
<path d="M111.013 67.4997C111.082 68.1332 111.015 68.7742 110.817 69.3798C110.619 69.9855 110.293 70.5419 109.863 71.012C109.433 71.4821 108.907 71.8551 108.322 72.1061C107.736 72.3571 107.103 72.4803 106.466 72.4676C105.116 72.4411 103.822 71.921 102.829 71.0057C101.837 70.0904 101.213 68.8432 101.077 67.4997C101.005 66.8696 101.068 66.2313 101.263 65.6277C101.458 65.024 101.779 64.4689 102.206 63.9995C102.632 63.5301 103.154 63.1573 103.736 62.906C104.319 62.6547 104.948 62.5306 105.582 62.5422C106.935 62.5674 108.233 63.0845 109.232 63.9969C110.232 64.9092 110.865 66.1545 111.013 67.4997V67.4997Z" fill="white"/>
<path d="M104.835 66.3629C104.845 66.4629 104.834 66.564 104.803 66.6595C104.772 66.755 104.72 66.8429 104.653 66.9174C104.585 66.9918 104.503 67.0513 104.411 67.0917C104.319 67.1322 104.219 67.1529 104.119 67.1523C103.903 67.1507 103.695 67.0692 103.536 66.9234C103.376 66.7776 103.277 66.5779 103.256 66.3629C103.244 66.2626 103.253 66.1609 103.284 66.0646C103.315 65.9683 103.366 65.8797 103.433 65.8049C103.501 65.73 103.585 65.6706 103.677 65.6307C103.77 65.5908 103.87 65.5713 103.972 65.5735C104.188 65.5751 104.395 65.6567 104.555 65.8025C104.714 65.9483 104.814 66.1479 104.835 66.3629V66.3629Z" fill="#263238"/>
<path d="M108.603 66.3629C108.615 66.4633 108.605 66.565 108.574 66.6613C108.544 66.7576 108.493 66.8461 108.425 66.921C108.357 66.9958 108.274 67.0552 108.181 67.0951C108.088 67.1351 107.988 67.1546 107.887 67.1523C107.672 67.1462 107.467 67.0631 107.309 66.9182C107.15 66.7733 107.049 66.5762 107.024 66.3629C107.012 66.2626 107.021 66.1609 107.052 66.0646C107.083 65.9683 107.134 65.8797 107.202 65.8049C107.269 65.73 107.353 65.6706 107.445 65.6307C107.538 65.5908 107.639 65.5713 107.74 65.5735C107.956 65.5727 108.165 65.6535 108.325 65.7997C108.485 65.946 108.584 66.147 108.603 66.3629V66.3629Z" fill="#263238"/>
<path d="M103.782 70.4889C103.734 70.4896 103.685 70.4807 103.64 70.4626C103.595 70.4445 103.554 70.4177 103.519 70.3837C103.447 70.3108 103.407 70.2124 103.407 70.11C103.407 70.0076 103.447 69.9092 103.519 69.8363C103.86 69.4734 104.273 69.185 104.732 68.9893C105.19 68.7937 105.684 68.6951 106.182 68.6996C107.225 68.7107 108.226 69.1082 108.992 69.8153C109.029 69.8507 109.059 69.8931 109.079 69.9402C109.099 69.9872 109.109 70.0378 109.109 70.0889C109.109 70.1401 109.099 70.1907 109.079 70.2377C109.059 70.2848 109.029 70.3272 108.992 70.3626C108.916 70.4329 108.817 70.4719 108.713 70.4719C108.61 70.4719 108.51 70.4329 108.434 70.3626C107.812 69.7816 106.992 69.4582 106.14 69.4574C105.748 69.4486 105.358 69.5217 104.995 69.6722C104.633 69.8226 104.306 70.047 104.035 70.331C103.973 70.4134 103.883 70.4698 103.782 70.4889V70.4889Z" fill="#263238"/>
<path d="M183.501 31.0821C180.217 24.167 172.555 19.5885 164.292 19.5885H147.452C146.295 19.6395 145.146 19.3841 144.12 18.8481C143.095 18.3121 142.229 17.5145 141.61 16.5361C139.263 12.1365 133.664 9 127.306 9C120.949 9 115.728 12.1576 113.876 16.5361C113.108 18.3886 110.908 19.5885 108.382 19.5885H91.5413C83.2789 19.5885 76.1322 24.167 73.6483 31.0821C73.5562 31.3235 73.5202 31.5826 73.543 31.8399C73.57 32.3798 73.8037 32.8886 74.1956 33.2608C74.5875 33.6331 75.1075 33.8404 75.6481 33.8397H181.827C182.152 33.8405 182.471 33.7574 182.754 33.5986C183.037 33.4397 183.274 33.2105 183.442 32.9332C183.611 32.6558 183.705 32.3396 183.715 32.0153C183.725 31.691 183.651 31.3696 183.501 31.0821V31.0821ZM127.99 21.4935C126.734 21.4676 125.533 20.9726 124.624 20.1058C123.714 19.239 123.162 18.0633 123.075 16.8098C123.033 16.2061 123.116 15.6002 123.32 15.0303C123.524 14.4604 123.843 13.939 124.259 13.4989C124.674 13.0588 125.176 12.7095 125.733 12.4732C126.291 12.237 126.891 12.1187 127.496 12.126C128.76 12.1391 129.973 12.6287 130.892 13.4969C131.811 14.3652 132.368 15.5483 132.453 16.8098C132.496 17.4171 132.411 18.0266 132.205 18.5994C131.999 19.1722 131.675 19.6957 131.255 20.1364C130.835 20.5772 130.328 20.9255 129.766 21.1592C129.204 21.3929 128.599 21.5067 127.99 21.4935V21.4935Z" fill="#263238"/>
</g>
<g filter="url(#filter1_d_9_155)">
<path d="M252.604 202.421C236.76 193.704 220.174 185.766 202.361 181.986C199.889 181.337 197.314 181.126 194.763 181.363C193.491 181.504 192.271 181.932 191.204 182.612C190.137 183.292 189.253 184.206 188.625 185.277C187.096 188.323 188.625 191.948 190.501 194.772C194.786 200.998 201.203 205.512 207.666 209.625C225.386 220.899 244.404 230.083 263.259 239.244C260.943 226.258 256.125 215.118 252.488 202.421" fill="#ED2B2B"/>
<path d="M374.076 235.931C379.265 252.741 385.496 269.462 395.642 284.027C396.966 286.142 398.686 288.004 400.715 289.519C401.73 290.272 402.919 290.778 404.181 290.994C405.443 291.211 406.741 291.132 407.965 290.765C411.254 289.586 412.83 285.984 413.432 282.671C414.822 275.333 413.432 267.795 411.741 260.546C407.108 240.533 399.927 221.388 392.816 202.176C385.195 213.139 380.585 224.412 374.076 235.931" fill="#ED2B2B"/>
<path d="M252.372 202.065C252.372 202.065 253.6 318.471 321.656 320.761C389.712 323.051 392.561 202.91 392.561 202.065C392.561 202.065 384.523 184.721 322.466 185.388C260.41 186.055 252.372 202.065 252.372 202.065Z" fill="#ED2B2B"/>
<path d="M342.758 248.294C342.42 252.738 340.717 256.985 337.864 260.5C335.011 264.014 331.136 266.638 326.73 268.038C322.324 269.438 317.584 269.553 313.11 268.367C308.636 267.181 304.628 264.748 301.595 261.376C298.561 258.003 296.638 253.843 296.068 249.421C295.498 244.999 296.307 240.514 298.392 236.534C300.477 232.553 303.746 229.256 307.784 227.059C311.822 224.861 316.448 223.863 321.077 224.19C327.281 224.628 333.05 227.413 337.116 231.933C341.181 236.453 343.211 242.338 342.758 248.294V248.294Z" fill="#263238"/>
<path d="M336.411 247.849C336.164 251.086 334.922 254.18 332.843 256.739C330.764 259.299 327.941 261.209 324.731 262.229C321.521 263.248 318.068 263.331 314.809 262.466C311.55 261.602 308.631 259.829 306.422 257.372C304.212 254.915 302.811 251.885 302.396 248.664C301.981 245.443 302.57 242.176 304.089 239.276C305.608 236.376 307.989 233.974 310.93 232.373C313.872 230.773 317.241 230.045 320.613 230.283C325.133 230.607 329.333 232.638 332.295 235.931C335.256 239.224 336.737 243.51 336.411 247.849V247.849Z" fill="white"/>
<path d="M328.165 250.851C328.035 249.952 327.98 249.045 328.002 248.138C328.002 246.426 328.002 244.024 328.002 241.067L328.188 241.378L319.316 236.464H319.802L310.931 241.245C310.699 241.645 311.255 240.734 311.209 240.823V243.335C311.209 244.158 311.209 245.003 311.209 245.826C311.209 247.449 311.209 249.028 311.209 250.562L310.977 250.139L319.664 255.231H319.27C321.98 253.831 324.227 252.719 325.802 251.941C326.617 251.495 327.469 251.116 328.35 250.806C327.621 251.336 326.846 251.805 326.034 252.207C324.551 253.075 322.327 254.431 319.548 255.876L319.362 255.987L319.177 255.876L310.375 250.962L310.12 250.829V250.54C310.12 249.005 310.12 247.427 310.12 245.803C310.12 244.981 310.12 244.158 310.12 243.313V240.911C310.12 240.911 310.63 240.089 310.375 240.467L319.293 235.73L319.548 235.597L319.779 235.73L328.466 240.845H328.674V241.045C328.674 244.113 328.489 246.582 328.396 248.272C328.403 249.136 328.325 250 328.165 250.851V250.851Z" fill="#ED2B2B"/>
<path d="M252.071 201.976C252.071 201.976 252.21 201.976 252.442 201.976L253.461 202.31L257.422 203.644L260.248 204.622L263.699 205.645C266.155 206.357 268.935 207.268 272.108 207.869L277.042 209.07C278.756 209.492 280.563 209.803 282.439 210.181C286.145 211.004 290.199 211.56 294.415 212.227C312.851 214.773 331.572 214.773 350.009 212.227C354.248 211.582 358.278 211.026 361.984 210.204C363.861 209.803 365.667 209.492 367.382 209.092L372.315 207.869C375.489 207.157 378.269 206.246 380.747 205.645C381.975 205.289 383.064 204.978 384.175 204.645L387.025 203.666L390.963 202.332L391.982 201.999L392.352 201.887C392.352 201.887 392.237 201.887 392.005 202.043L390.986 202.421L387.071 203.822L384.245 204.845C383.203 205.2 381.929 205.512 380.817 205.912C378.361 206.624 375.582 207.558 372.408 208.291L367.474 209.537C365.76 209.959 363.953 210.293 362.077 210.693C358.348 211.516 354.317 212.094 350.078 212.761C331.592 215.37 312.808 215.37 294.322 212.761C290.06 212.094 286.03 211.515 282.3 210.671C280.447 210.293 278.617 209.959 276.903 209.537L271.969 208.291C268.795 207.558 266.039 206.624 263.56 205.89L260.132 204.845L257.306 203.822L253.391 202.399L252.372 202.021L252.071 201.976Z" fill="#263238"/>
<g opacity="0.3">
<path d="M252.372 202.065C252.372 202.065 260.41 186.078 322.466 185.388C384.523 184.699 392.561 202.065 392.561 202.065C392.561 202.065 329.972 231.706 252.372 202.065Z" fill="black"/>
</g>
<path d="M273.706 284.916C273.659 284.863 273.62 284.803 273.591 284.739L273.289 284.227L272.154 282.181L271.367 280.714L270.487 278.913C269.861 277.623 269.166 276.155 268.471 274.466L267.359 271.864L266.271 269.018C265.46 267.061 264.788 264.904 263.954 262.658C262.495 258.211 261.082 253.119 259.831 247.782C258.58 242.446 257.677 237.331 256.936 232.64C256.194 227.948 255.708 223.745 255.43 220.165C255.245 218.386 255.129 216.785 255.036 215.362C254.943 213.939 254.874 212.716 254.828 211.716V209.492V208.669C254.828 208.669 254.828 208.669 254.828 208.892V209.47C254.828 210.048 254.828 210.804 255.013 211.693C255.198 212.583 255.152 213.917 255.291 215.318C255.43 216.719 255.546 218.342 255.731 220.121C256.079 223.679 256.658 227.881 257.353 232.573C258.047 237.265 259.067 242.335 260.271 247.671C261.476 253.008 262.935 257.989 264.348 262.503C265.136 264.726 265.784 266.95 266.664 268.862L267.73 271.731L268.819 274.332C269.467 276 270.162 277.467 270.764 278.779L271.598 280.603L272.363 282.093L273.405 284.16L273.66 284.694L273.706 284.916Z" fill="white"/>
<path d="M306.507 312.912C306.14 312.899 305.776 312.855 305.418 312.778C304.436 312.628 303.468 312.405 302.522 312.111C301.111 311.706 299.733 311.2 298.399 310.599C296.786 309.842 295.237 308.965 293.766 307.975C292.294 306.971 290.907 305.856 289.62 304.64C288.57 303.638 287.602 302.56 286.725 301.416C286.123 300.663 285.581 299.867 285.103 299.036C284.9 298.743 284.729 298.43 284.594 298.102C284.594 298.102 285.451 299.348 286.91 301.215C287.813 302.311 288.788 303.351 289.829 304.328C291.119 305.512 292.497 306.604 293.952 307.597C295.424 308.578 296.973 309.448 298.585 310.199C299.891 310.814 301.238 311.349 302.615 311.8C304.978 312.556 306.507 312.823 306.507 312.912Z" fill="white"/>
<path d="M320.683 271.842H320.034C319.617 271.842 318.969 271.842 318.158 271.842C315.863 271.804 313.585 271.452 311.394 270.797C308.115 269.843 305.057 268.295 302.383 266.238C299.05 263.765 296.421 260.524 294.74 256.816C293.06 253.108 292.382 249.052 292.77 245.025C292.923 243.273 293.249 241.538 293.743 239.844C294.198 238.388 294.771 236.968 295.457 235.597C296.464 233.602 297.759 231.753 299.302 230.105C299.712 229.661 300.145 229.238 300.6 228.837C300.924 228.548 301.086 228.415 301.109 228.437C301.132 228.459 300.484 229.06 299.441 230.238C297.964 231.899 296.733 233.747 295.781 235.73C295.11 237.092 294.56 238.505 294.137 239.955C293.669 241.621 293.366 243.326 293.233 245.047C292.862 249.003 293.531 252.986 295.178 256.629C296.825 260.273 299.398 263.462 302.661 265.905C304.068 266.98 305.571 267.933 307.155 268.751C308.554 269.428 310.001 270.008 311.487 270.485C313.657 271.151 315.906 271.547 318.181 271.664C319.779 271.842 320.683 271.797 320.683 271.842Z" fill="white"/>
<path d="M317.741 81.0348C317.741 81.0348 258.395 80.3455 249.129 129.732C239.864 179.118 289.921 179.963 304.352 180.874C310.908 181.297 324.899 181.341 337.245 181.119C364.602 180.674 383.921 175.582 390.523 151.234C391.309 148.373 391.805 145.447 392.005 142.495C393.603 115.812 374.771 79.7228 317.741 81.0348Z" fill="#ED2B2B"/>
<path d="M360.78 156.17L274.587 157.46C272.429 157.492 270.287 157.114 268.282 156.348C266.278 155.582 264.451 154.443 262.907 152.996C261.363 151.549 260.133 149.824 259.287 147.918C258.441 146.013 257.996 143.966 257.978 141.895V141.895C257.91 137.729 259.567 133.708 262.586 130.714C265.604 127.72 269.737 125.999 274.077 125.929L360.317 124.751C362.474 124.721 364.617 125.101 366.621 125.868C368.626 126.635 370.453 127.774 371.998 129.22C373.543 130.666 374.776 132.39 375.625 134.294C376.475 136.198 376.924 138.245 376.948 140.316V140.316C376.986 144.474 375.305 148.477 372.275 151.448C369.245 154.42 365.111 156.117 360.78 156.17V156.17Z" fill="#263238"/>
<path d="M292.469 140.294C292.27 141.275 291.771 142.177 291.037 142.886C290.303 143.595 289.366 144.078 288.345 144.276C287.324 144.473 286.265 144.374 285.303 143.993C284.34 143.612 283.517 142.965 282.938 142.134C282.359 141.304 282.05 140.326 282.05 139.327C282.05 138.327 282.359 137.35 282.938 136.519C283.518 135.689 284.341 135.042 285.303 134.661C286.266 134.28 287.325 134.182 288.346 134.379C289.708 134.642 290.906 135.412 291.678 136.52C292.451 137.628 292.735 138.985 292.469 140.294Z" fill="white"/>
<path d="M352.696 139.36C352.497 140.34 352 141.242 351.268 141.952C350.535 142.661 349.6 143.146 348.58 143.344C347.56 143.543 346.502 143.447 345.539 143.068C344.576 142.689 343.752 142.044 343.171 141.216C342.59 140.387 342.279 139.411 342.276 138.412C342.273 137.414 342.578 136.436 343.154 135.604C343.73 134.772 344.55 134.123 345.51 133.739C346.471 133.354 347.528 133.252 348.549 133.445C349.915 133.703 351.119 134.471 351.896 135.58C352.674 136.688 352.961 138.048 352.696 139.36Z" fill="white"/>
<path d="M307.572 137.959C307.966 137.959 307.757 139.76 308.916 142.117C309.579 143.46 310.526 144.656 311.695 145.63C313.081 146.791 314.802 147.519 316.629 147.72C318.469 147.849 320.305 147.43 321.887 146.52C323.226 145.765 324.386 144.75 325.292 143.54C326.868 141.428 327.007 139.671 327.4 139.693C327.794 139.716 327.702 140.138 327.702 140.983C327.649 142.17 327.325 143.332 326.752 144.385C325.892 145.976 324.624 147.33 323.069 148.321C321.116 149.591 318.774 150.194 316.421 150.033C314.073 149.793 311.882 148.789 310.213 147.187C308.867 145.967 307.87 144.435 307.317 142.74C306.94 141.606 306.837 140.404 307.016 139.226C307.178 138.337 307.41 137.937 307.572 137.959Z" fill="white"/>
<path d="M310.236 84.726H310.027H309.402C308.846 84.726 308.035 84.7259 307.085 84.9038C304.138 85.185 301.213 85.6529 298.329 86.3047C294.056 87.2762 289.896 88.662 285.914 90.4406C281.028 92.6342 276.451 95.4136 272.293 98.7124C264.766 104.751 258.77 112.355 254.758 120.948C253.541 123.538 252.512 126.205 251.677 128.931C251.353 129.909 251.191 130.665 251.029 131.155L250.843 131.733V131.933C250.843 131.933 250.843 131.933 250.843 131.733L250.982 131.132C251.098 130.621 251.237 129.843 251.538 128.909C252.268 126.154 253.213 123.456 254.364 120.837C256.114 116.919 258.296 113.191 260.873 109.719C269.838 97.6964 283.11 89.2719 298.144 86.0601C301.073 85.4336 304.046 85.0174 307.039 84.8149C308.082 84.8149 308.915 84.8149 309.356 84.8149H310.189L310.236 84.726Z" fill="white"/>
<path d="M252.187 153.057C251.806 152.511 251.517 151.911 251.33 151.278C250.792 149.833 250.388 148.345 250.125 146.831C249.881 145.279 249.78 143.709 249.824 142.139C249.811 141.487 249.889 140.837 250.056 140.205C250.218 140.205 250.056 143.184 250.612 146.876C251.168 150.567 252.326 153.013 252.187 153.057Z" fill="white"/>
<path d="M346.534 121.86C346.534 121.994 335.183 122.105 321.192 122.105C307.201 122.105 295.828 122.105 295.828 121.86C295.828 121.615 307.178 121.638 321.192 121.638C335.206 121.638 346.534 121.749 346.534 121.86Z" fill="white"/>
<path d="M303.263 177.361C303.263 177.361 303.125 177.361 302.847 177.361H301.619C301.063 177.361 300.414 177.361 299.65 177.361C298.885 177.361 298.005 177.361 297.032 177.361C294.772 177.343 292.514 177.209 290.269 176.961C287.519 176.654 284.789 176.201 282.092 175.604C279.399 175.017 276.746 174.274 274.146 173.381C272.024 172.643 269.944 171.797 267.915 170.846C267.035 170.446 266.271 170.045 265.599 169.69C264.927 169.334 264.348 169.045 263.885 168.778L262.819 168.155L262.472 167.911C262.472 167.911 262.611 167.911 262.865 168.066L263.977 168.6C264.441 168.845 265.02 169.156 265.715 169.467C266.41 169.779 267.174 170.179 268.031 170.535C269.768 171.313 271.876 172.158 274.262 172.981C276.862 173.85 279.506 174.593 282.184 175.204C284.868 175.799 287.582 176.259 290.315 176.583C292.817 176.872 295.11 177.027 297.032 177.072C297.982 177.072 298.862 177.072 299.627 177.072H303.24L303.263 177.361Z" fill="white"/>
<path d="M375.813 209.181H375.605L374.933 209.425L372.362 210.315C371.25 210.693 369.883 211.138 368.262 211.604C366.64 212.071 364.81 212.65 362.772 213.139L359.552 213.961L356.031 214.74C353.715 215.296 350.981 215.74 348.225 216.252C342.219 217.226 336.165 217.909 330.088 218.297C324.015 218.596 317.93 218.596 311.857 218.297C309.055 218.12 306.391 217.986 303.912 217.719L300.322 217.364L297.009 216.919C294.901 216.674 293.025 216.318 291.357 216.052C289.689 215.785 288.276 215.496 287.118 215.251L284.454 214.673L283.759 214.517H283.528C283.528 214.517 283.528 214.517 283.783 214.517L284.478 214.629L287.165 215.118C288.323 215.34 289.736 215.607 291.404 215.829C293.071 216.052 294.948 216.43 297.056 216.652L300.368 217.052C301.503 217.186 302.684 217.275 303.935 217.386C306.414 217.63 309.078 217.764 311.857 217.919C317.463 218.142 323.625 218.142 330.064 217.786C336.504 217.43 342.619 216.652 348.132 215.785C350.889 215.296 353.506 214.873 355.939 214.317C357.143 214.05 358.255 213.828 359.459 213.561L362.679 212.783C364.741 212.316 366.571 211.76 368.169 211.315C369.767 210.871 371.18 210.448 372.315 210.092L374.91 209.292L375.582 209.092L375.813 209.181Z" fill="white"/>
</g>
<defs>
<filter id="filter0_d_9_155" x="0" y="0" width="253.401" height="317.384" filterUnits="userSpaceOnUse" color-interpolation-filters="sRGB">
<feFlood flood-opacity="0" result="BackgroundImageFix"/>
<feColorMatrix in="SourceAlpha" type="matrix" values="0 0 0 0 0 0 0 0 0 0 0 0 0 0 0 0 0 0 127 0" result="hardAlpha"/>
<feOffset dx="-7" dy="11"/>
<feGaussianBlur stdDeviation="10"/>
<feComposite in2="hardAlpha" operator="out"/>
<feColorMatrix type="matrix" values="0 0 0 0 0 0 0 0 0 0 0 0 0 0 0 0 0 0 0.25 0"/>
<feBlend mode="normal" in2="BackgroundImageFix" result="effect1_dropShadow_9_155"/>
<feBlend mode="normal" in="SourceGraphic" in2="effect1_dropShadow_9_155" result="shape"/>
</filter>
<filter id="filter1_d_9_155" x="163" y="71" width="266" height="279.793" filterUnits="userSpaceOnUse" color-interpolation-filters="sRGB">
<feFlood flood-opacity="0" result="BackgroundImageFix"/>
<feColorMatrix in="SourceAlpha" type="matrix" values="0 0 0 0 0 0 0 0 0 0 0 0 0 0 0 0 0 0 127 0" result="hardAlpha"/>
<feOffset dx="-5" dy="10"/>
<feGaussianBlur stdDeviation="10"/>
<feComposite in2="hardAlpha" operator="out"/>
<feColorMatrix type="matrix" values="0 0 0 0 0 0 0 0 0 0 0 0 0 0 0 0 0 0 0.25 0"/>
<feBlend mode="normal" in2="BackgroundImageFix" result="effect1_dropShadow_9_155"/>
<feBlend mode="normal" in="SourceGraphic" in2="effect1_dropShadow_9_155" result="shape"/>
</filter>
</defs>
</svg>
